<?xml version="1.0" encoding="utf-8"?>
<!-- Generator: Adobe Illustrator 26.0.1, SVG Export Plug-In . SVG Version: 6.00 Build 0)  -->
<svg version="1.1" id="Layer_1" xmlns="http://www.w3.org/2000/svg" xmlns:xlink="http://www.w3.org/1999/xlink" x="0px" y="0px"
	 viewBox="0 0 38.4 38.4" style="enable-background:new 0 0 38.4 38.4;" xml:space="preserve">
<style type="text/css">
	.st0{fill-rule:evenodd;clip-rule:evenodd;fill:#7F54B3;}
</style>
<path class="st0" d="M34.7,7.7H3.6c-2,0-3.6,1.6-3.6,3.6v11.9c0,2,1.6,3.6,3.6,3.6h14.8l6.7,3.8l-1.5-3.8h11.2c2,0,3.6-1.6,3.6-3.6
	V11.2C38.3,9.2,36.7,7.7,34.7,7.7z M2.9,10.5c-0.4,0-0.8,0.2-1,0.5s-0.3,0.6-0.3,1c0.9,5.9,1.8,9.8,2.6,11.9C4.5,24.6,4.9,25,5.3,25
	c0.7,0,1.4-1,2.4-2.7c0.5-1,1.2-2.5,2.3-4.5c0.8,3,2,5.2,3.5,6.7c0.4,0.4,0.8,0.6,1.2,0.6c0.4,0,0.6-0.2,0.8-0.6
	c0.2-0.3,0.2-0.6,0.2-1c-0.1-1.4,0-3.4,0.4-6s0.9-4.5,1.5-5.6c0.1-0.2,0.2-0.5,0.2-0.8c0-0.4-0.2-0.7-0.5-0.9
	c-0.3-0.2-0.6-0.3-1-0.3c-0.5,0-0.8,0.3-1,0.7c-1,1.8-1.7,4.6-2.1,8.6c-0.6-1.5-1.1-3.3-1.5-5.4c-0.2-0.9-0.6-1.4-1.3-1.3
	c-0.5,0-0.9,0.3-1.2,0.9l-3.4,6.5c-0.6-2.3-1.1-5-1.6-8.3C4.2,10.8,3.7,10.4,2.9,10.5z M33.1,11.6c1.1,0.2,1.9,0.8,2.5,1.8
	c0.5,0.8,0.8,1.9,0.8,3.1c0,1.6-0.4,3.1-1.2,4.4c-0.9,1.6-2.2,2.3-3.7,2.3c-0.3,0-0.5,0-0.8-0.1c-1.1-0.2-1.9-0.8-2.5-1.8
	c-0.5-0.9-0.8-1.9-0.8-3.1c0-1.6,0.4-3.1,1.2-4.4c1-1.6,2.2-2.3,3.7-2.3C32.5,11.5,32.8,11.5,33.1,11.6z M32.4,20.1
	c0.6-0.5,1-1.3,1.2-2.3c0.1-0.4,0.1-0.8,0.1-1.2c0-0.5-0.1-0.9-0.3-1.4c-0.2-0.6-0.5-0.9-0.9-1c-0.6-0.1-1.1,0.2-1.6,1
	c-0.4,0.6-0.7,1.2-0.8,1.9c-0.1,0.3-0.1,0.6-0.1,1c0,0.5,0.1,0.9,0.3,1.4c0.2,0.6,0.5,0.9,0.9,1C31.6,20.7,32,20.5,32.4,20.1z
	 M25.8,13.4c-0.6-1-1.4-1.6-2.5-1.8c-0.3-0.1-0.6-0.1-0.8-0.1c-1.5,0-2.7,0.8-3.7,2.3c-0.8,1.3-1.2,2.8-1.2,4.4
	c0,1.2,0.3,2.2,0.8,3.1c0.6,1,1.4,1.6,2.5,1.8c0.3,0.1,0.6,0.1,0.8,0.1c1.5,0,2.7-0.8,3.7-2.3c0.8-1.3,1.2-2.8,1.2-4.4
	C26.5,15.2,26.3,14.2,25.8,13.4z M23.8,17.8c-0.2,1-0.6,1.8-1.2,2.3c-0.5,0.4-0.9,0.6-1.3,0.5s-0.7-0.4-0.9-1
	c-0.2-0.5-0.3-1-0.3-1.4s0-0.8,0.1-1.1c0.1-0.6,0.4-1.3,0.8-1.9c0.5-0.8,1.1-1.1,1.6-1c0.4,0.1,0.7,0.4,0.9,1c0.2,0.5,0.3,1,0.3,1.4
	C23.9,17,23.9,17.4,23.8,17.8z"/>
</svg>
