<?xml version="1.0" encoding="utf-8"?>
<!-- Generator: Adobe Illustrator 27.2.0, SVG Export Plug-In . SVG Version: 6.00 Build 0)  -->
<svg version="1.1" id="Layer_1" xmlns:xodm="http://www.corel.com/coreldraw/odm/2003"
	 xmlns="http://www.w3.org/2000/svg" xmlns:xlink="http://www.w3.org/1999/xlink" x="0px" y="0px" viewBox="0 0 2500 2500"
	 style="enable-background:new 0 0 2500 2500;" xml:space="preserve">
<style type="text/css">
	.st0{fill:none;}
	.st1{fill:#213147;}
	.st2{fill:#12AAFF;}
	.st3{fill:#9DCCED;}
	.st4{fill:#FFFFFF;}
</style>
<g id="Layer_x0020_1">
	<g id="_2405588477232">
		<rect x="226" y="226" class="st0" width="2048" height="2048"/>
		<g>
			<g>
				<path class="st1" d="M411.1,848.6v802.8c0,51.6,27,98.3,72.1,124.5l695.5,401.4c44.2,25.4,99.1,25.4,143.4,0l695.5-401.4
					c44.2-25.4,72.1-72.9,72.1-124.5V848.6c0-51.6-27-98.3-72.1-124.5l-695.5-401.4c-44.2-25.4-99.1-25.4-143.4,0L483.2,724.1
					c-44.2,25.4-71.3,72.9-71.3,124.5H411.1z"/>
				<g>
					<g>
						<g>
							<path class="st2" d="M1401.6,1405.7l-99.1,272c-2.5,7.4-2.5,15.6,0,23.8l170.4,467.8l197.4-113.9l-236.8-649.6
								C1427.8,1390.9,1407.3,1390.9,1401.6,1405.7z"/>
						</g>
						<g>
							<path class="st2" d="M1600.6,948.5c-5.7-14.7-26.2-14.7-31.9,0l-99.1,272c-2.5,7.4-2.5,15.6,0,23.8l279.4,766l197.4-113.9
								l-345.7-947V948.5z"/>
						</g>
					</g>
				</g>
				<g>
					<path class="st3" d="M1250,353c4.9,0,9.8,1.6,13.9,4.1l752,434.2c9,4.9,13.9,14.7,13.9,24.6v868.4c0,9.8-5.7,19.7-13.9,24.6
						l-752,434.2c-4.1,2.5-9,4.1-13.9,4.1s-9.8-1.6-13.9-4.1l-752-434.2c-9-4.9-13.9-14.7-13.9-24.6V815c0-9.8,5.7-19.7,13.9-24.6
						l752-434.2c4.1-2.5,9-4.1,13.9-4.1l0,0V353z M1250,226c-27,0-53.2,6.6-77.8,20.5l-752,434.2c-48.3,27.9-77.8,78.6-77.8,134.4
						v868.4c0,55.7,29.5,106.5,77.8,134.4l752,434.2c23.8,13.9,50.8,20.5,77.8,20.5s53.2-6.6,77.8-20.5l752-434.2
						c48.3-27.9,77.8-78.6,77.8-134.4V815c0-55.7-29.5-106.5-77.8-134.4L1327,246.5c-23.8-13.9-50.8-20.5-77.8-20.5l0,0H1250z"/>
				</g>
				<polygon class="st1" points="751.9,2011 821.6,1821 960.8,1936.5 830.6,2056.1 				"/>
				<g>
					<path class="st4" d="M1186.1,753.6H995.2c-13.9,0-27,9-31.9,22.1L554.5,1896.4l197.4,113.9l450.6-1234.6
						c4.1-11.5-4.1-22.9-15.6-22.9L1186.1,753.6z"/>
					<path class="st4" d="M1520.3,753.6h-190.9c-13.9,0-27,9-31.9,22.1l-467,1279.6l197.4,113.9l507.9-1393.5
						c4.1-11.5-4.1-22.9-15.6-22.9V753.6z"/>
				</g>
			</g>
		</g>
	</g>
</g>
</svg>
