<?xml version="1.0" encoding="utf-8"?>
<!-- Generator: Adobe Illustrator 26.0.1, SVG Export Plug-In . SVG Version: 6.00 Build 0)  -->
<svg version="1.1" id="Layer_1" xmlns="http://www.w3.org/2000/svg" xmlns:xlink="http://www.w3.org/1999/xlink" x="0px" y="0px"
	 viewBox="0 0 192 192" style="enable-background:new 0 0 192 192;" xml:space="preserve">
<style type="text/css">
	.st0{fill:#F0B90B;}
</style>
<path class="st0" d="M49.7,35.4L96,8.7l46.3,26.7l-17,9.9L96,28.5L66.7,45.3L49.7,35.4z M142.3,69.2l-17-9.9L96,76.2L66.7,59.3
	l-17,9.9v19.8L79,105.8v33.7l17,9.9l17-9.9v-33.7l29.3-16.9L142.3,69.2z M142.3,122.7v-19.8l-17,9.9v19.8L142.3,122.7z M154.4,129.6
	l-29.3,16.9v19.8l46.3-26.7V86l-17,9.9L154.4,129.6z M137.4,52.3l17,9.9v19.8l17-9.9V52.3l-17-9.9L137.4,52.3z M79,153.7v19.8
	l17,9.9l17-9.9v-19.8l-17,9.9L79,153.7z M49.7,122.7l17,9.9v-19.8l-17-9.9L49.7,122.7z M79,52.3l17,9.9l17-9.9l-17-9.9L79,52.3z
	 M37.6,62.2l17-9.9l-17-9.9l-17,9.9v19.8l17,9.9L37.6,62.2z M37.6,95.9l-17-9.9v53.5l46.3,26.7v-19.8l-29.3-16.9V95.9z"/>
</svg>
