<?xml version="1.0" encoding="utf-8"?>
<svg version="1.1" id="Layer_1" xmlns="http://www.w3.org/2000/svg" xmlns:xlink="http://www.w3.org/1999/xlink" x="0px" y="0px"
	 viewBox="0 0 192 192" style="enable-background:new 0 0 192 192;" xml:space="preserve">
<g id="circle">
	<g id="Fantom-circle">
		<circle id="Oval" fillRule="evenodd" clipRule="evenodd" fill="#1969FF" class="st0" cx="96" cy="96" r="80.4"/>
		<path id="Shape" fill="#FFFFFF" d="M91.1,41.2c2.7-1.4,6.8-1.4,9.5,0l27.6,14.6c1.6,0.9,2.5,2.1,2.7,3.5h0v73.3
			c0,1.4-0.9,2.9-2.7,3.8l-27.6,14.6c-2.7,1.4-6.8,1.4-9.5,0l-27.6-14.6c-1.8-0.9-2.6-2.4-2.7-3.8c0-0.1,0-0.3,0-0.4l0-72.4
			c0-0.1,0-0.2,0-0.3l0-0.2h0c0.1-1.3,1-2.6,2.6-3.5L91.1,41.2z M126.6,99.9l-26,13.7c-2.7,1.4-6.8,1.4-9.5,0L65.2,100v32.3
			l25.9,13.6c1.5,0.8,3.1,1.6,4.7,1.7l0.1,0c1.5,0,3-0.8,4.6-1.5l26.2-13.9V99.9z M56.5,130.9c0,2.8,0.3,4.7,1,6
			c0.5,1.1,1.3,1.9,2.8,2.9l0.1,0.1c0.3,0.2,0.7,0.4,1.1,0.7l0.5,0.3l1.6,0.9l-2.2,3.7l-1.7-1.1l-0.3-0.2c-0.5-0.3-0.9-0.6-1.3-0.8
			c-4.2-2.8-5.7-5.9-5.7-12.3l0-0.2H56.5z M93.8,80.5c-0.2,0.1-0.4,0.1-0.6,0.2L65.6,95.3c0,0-0.1,0-0.1,0l0,0l0,0l0.1,0l27.6,14.6
			c0.2,0.1,0.4,0.2,0.6,0.2V80.5z M98.2,80.5v29.8c0.2-0.1,0.4-0.1,0.6-0.2l27.6-14.6c0,0,0.1,0,0.1,0l0,0l0,0l-0.1,0L98.8,80.7
			C98.6,80.6,98.4,80.5,98.2,80.5z M126.6,64.4l-24.8,13l24.8,13V64.4z M65.2,64.4v26.1l24.8-13L65.2,64.4z M98.7,45.1
			c-1.4-0.8-4-0.8-5.5,0L65.6,59.7c0,0-0.1,0-0.1,0l0,0l0,0l0.1,0l27.6,14.6c1.4,0.8,4,0.8,5.5,0l27.6-14.6c0,0,0.1,0,0.1,0l0,0l0,0
			l-0.1,0L98.7,45.1z M130.7,46.5l1.7,1.1l0.3,0.2c0.5,0.3,0.9,0.6,1.3,0.8c4.2,2.8,5.7,5.9,5.7,12.3l0,0.2h-4.3c0-2.8-0.3-4.7-1-6
			c-0.5-1.1-1.3-1.9-2.8-2.9l-0.1-0.1c-0.3-0.2-0.7-0.4-1.1-0.7l-0.5-0.3l-1.6-0.9L130.7,46.5z"/>
	</g>
</g>
</svg>
