<?xml version="1.0" encoding="utf-8"?>
<!-- Generator: Adobe Illustrator 27.2.0, SVG Export Plug-In . SVG Version: 6.00 Build 0)  -->
<svg version="1.1" id="Layer_1" xmlns="http://www.w3.org/2000/svg" xmlns:xlink="http://www.w3.org/1999/xlink" x="0px" y="0px"
	 viewBox="0 0 38.4 33.5" style="enable-background:new 0 0 38.4 33.5;" xml:space="preserve">
<style type="text/css">
	.st0{fill:#8247E5;}
</style>
<g>
	<path class="st0" d="M1.2,14.9C0.4,15.4,0,16.2,0,17l0,9.5c0,0.9,0.5,1.7,1.2,2.1l8.1,4.7c0.8,0.4,1.7,0.4,2.4,0l8.1-4.7
		c0.8-0.5,1.2-1.3,1.2-2.1v-3.3L17.2,21v3.2c0,0.9-0.5,1.7-1.2,2.1l-4.3,2.5c-0.8,0.4-1.7,0.4-2.4,0l-4.2-2.5
		c-0.8-0.5-1.2-1.3-1.2-2.1v-5c0-0.9,0.5-1.7,1.2-2.1l4.3-2.5c0.8-0.4,1.7-0.4,2.4,0l5.5,3.2l3.8,2.2l5.5,3.2c0.8,0.4,1.7,0.4,2.4,0
		l8.1-4.7c0.8-0.5,1.2-1.3,1.2-2.1V7c0-0.8-0.4-1.6-1.2-2l-8.2-4.8c-0.8-0.4-1.7-0.4-2.4,0l-8,4.7c-0.8,0.5-1.2,1.3-1.2,2.1v3.4
		l3.8,2.2V9.3c0-0.9,0.5-1.7,1.2-2.1l4.3-2.6c0.8-0.4,1.7-0.4,2.4,0l4.3,2.5c0.8,0.5,1.2,1.3,1.2,2.1v5c0,0.9-0.5,1.7-1.2,2.1
		L29,18.9c-0.8,0.4-1.7,0.4-2.4,0l-5.5-3.3l-3.8-2.1l-5.6-3.3c-0.8-0.4-1.7-0.4-2.4,0L1.2,14.9z"/>
</g>
</svg>
