<?xml version="1.0" encoding="UTF-8"?>
<svg id="Layer_1" xmlns="http://www.w3.org/2000/svg" version="1.1" viewBox="0 0 315.8 299">
  <!-- Generator: Adobe Illustrator 29.0.0, SVG Export Plug-In . SVG Version: 2.1.0 Build 186)  -->
  <path d="M268.4,102.6c-6.1-14.3-14.7-27.1-25.8-38.2-11.1-11.1-23.7-19.7-38-25.8-14.9-6.3-30.6-9.4-46.8-9.4s-32.1,3.1-46.8,9.4c-14.3,6.1-27,14.7-38.2,25.8-11.1,11.1-19.7,23.9-25.8,38.2-6.3,14.7-9.4,30.4-9.4,46.8s3.1,31.9,9.4,46.8c6.1,14.3,14.7,27.1,25.8,38.2,11.1,11.1,23.9,19.7,38.2,25.6,14.9,6.3,30.6,9.4,46.8,9.4s31.9-3.1,46.8-9.4c14.3-6.1,27-14.7,38.2-25.8,11.1-11.1,19.7-23.9,25.8-38.2,6.3-14.9,9.4-30.6,9.4-46.8s-3.4-31.9-9.6-46.6h0ZM118,138c4.8-19.3,22.4-33.4,43.2-33.4h83.5c5.5,10.3,8.8,21.6,10.1,33.4H118ZM254.7,160.7c-1.3,11.8-4.8,23.1-10.1,33.4h-83.5c-20.8,0-38.2-14.3-43.2-33.4h136.8ZM88.9,80.3c18.5-18.5,43-28.5,69-28.5s50.5,10.1,69,28.5c.6.6,1,1,1.7,1.7h-67.3c-18,0-34.8,6.9-47.6,19.7s-16.6,22.7-18.7,36.3h-34c2.5-21.8,12.2-42,27.9-57.7h0ZM157.9,246.9c-26,0-50.5-10.1-69-28.5-15.7-15.7-25.4-36.1-27.9-57.7h34c2.3,13.6,8.8,26.2,18.7,36.3,12.8,12.8,29.6,19.7,47.6,19.7h67.3l-1.7,1.7c-18.5,18.5-43,28.5-69,28.5Z"/>
</svg>