<?xml version="1.0" encoding="UTF-8" standalone="no"?>
<!DOCTYPE svg PUBLIC "-//W3C//DTD SVG 1.1//EN" "http://www.w3.org/Graphics/SVG/1.1/DTD/svg11.dtd"
[
<!ATTLIST g
  xmlns:vectornator CDATA #FIXED "http://vectornator.io"
  vectornator:layerName CDATA #IMPLIED >
<!ATTLIST g
  xmlns:vectornator CDATA #FIXED "http://vectornator.io"
  vectornator:mask CDATA #IMPLIED >
<!ATTLIST text
  xmlns:vectornator CDATA #FIXED "http://vectornator.io"
  vectornator:width CDATA #IMPLIED >

<!ATTLIST path
  xmlns:vectornator CDATA #FIXED "http://vectornator.io"
  vectornator:blendMode CDATA #IMPLIED >
<!ATTLIST path
  xmlns:vectornator CDATA #FIXED "http://vectornator.io"
  vectornator:shadowColor CDATA #IMPLIED >
<!ATTLIST path
  xmlns:vectornator CDATA #FIXED "http://vectornator.io"
  vectornator:shadowOpacity CDATA #IMPLIED >
<!ATTLIST path
  xmlns:vectornator CDATA #FIXED "http://vectornator.io"
  vectornator:shadowRadius CDATA #IMPLIED >
<!ATTLIST path
  xmlns:vectornator CDATA #FIXED "http://vectornator.io"
  vectornator:shadowOffset CDATA #IMPLIED >
<!ATTLIST path
  xmlns:vectornator CDATA #FIXED "http://vectornator.io"
  vectornator:shadowAngle CDATA #IMPLIED >

<!ATTLIST image
  xmlns:vectornator CDATA #FIXED "http://vectornator.io"
  vectornator:blendMode CDATA #IMPLIED >
<!ATTLIST image
  xmlns:vectornator CDATA #FIXED "http://vectornator.io"
  vectornator:shadowColor CDATA #IMPLIED >
<!ATTLIST image
  xmlns:vectornator CDATA #FIXED "http://vectornator.io"
  vectornator:shadowOpacity CDATA #IMPLIED >
<!ATTLIST image
  xmlns:vectornator CDATA #FIXED "http://vectornator.io"
  vectornator:shadowRadius CDATA #IMPLIED >
<!ATTLIST image
  xmlns:vectornator CDATA #FIXED "http://vectornator.io"
  vectornator:shadowOffset CDATA #IMPLIED >
<!ATTLIST image
  xmlns:vectornator CDATA #FIXED "http://vectornator.io"
  vectornator:shadowAngle CDATA #IMPLIED >

<!ATTLIST g
  xmlns:vectornator CDATA #FIXED "http://vectornator.io"
  vectornator:blendMode CDATA #IMPLIED >
<!ATTLIST g
  xmlns:vectornator CDATA #FIXED "http://vectornator.io"
  vectornator:shadowColor CDATA #IMPLIED >
<!ATTLIST g
  xmlns:vectornator CDATA #FIXED "http://vectornator.io"
  vectornator:shadowOpacity CDATA #IMPLIED >
<!ATTLIST g
  xmlns:vectornator CDATA #FIXED "http://vectornator.io"
  vectornator:shadowRadius CDATA #IMPLIED >
<!ATTLIST g
  xmlns:vectornator CDATA #FIXED "http://vectornator.io"
  vectornator:shadowOffset CDATA #IMPLIED >
<!ATTLIST g
  xmlns:vectornator CDATA #FIXED "http://vectornator.io"
  vectornator:shadowAngle CDATA #IMPLIED >

<!ENTITY % SVG.filter.extra.content  "| feDropShadow" >
<!ELEMENT feDropShadow EMPTY>
<!ATTLIST feDropShadow
  xmlns:svg CDATA #FIXED "http://www.w3.org/Graphics/SVG/1.1/DTD/svg11.dtd"
  dx CDATA #IMPLIED>
<!ATTLIST feDropShadow
  xmlns:svg CDATA #FIXED "http://www.w3.org/Graphics/SVG/1.1/DTD/svg11.dtd"
  dy CDATA #IMPLIED>
<!ATTLIST feDropShadow
  xmlns:svg CDATA #FIXED "http://www.w3.org/Graphics/SVG/1.1/DTD/svg11.dtd"
  stdDeviation CDATA #IMPLIED>
<!ATTLIST feDropShadow
  xmlns:svg CDATA #FIXED "http://www.w3.org/Graphics/SVG/1.1/DTD/svg11.dtd"
  flood-opacity CDATA #IMPLIED>
<!ATTLIST feDropShadow
  xmlns:svg CDATA #FIXED "http://www.w3.org/Graphics/SVG/1.1/DTD/svg11.dtd"
  in CDATA #IMPLIED>
<!ATTLIST feDropShadow
  xmlns:svg CDATA #FIXED "http://www.w3.org/Graphics/SVG/1.1/DTD/svg11.dtd"
  result CDATA #IMPLIED>
<!ATTLIST feDropShadow
  xmlns:svg CDATA #FIXED "http://www.w3.org/Graphics/SVG/1.1/DTD/svg11.dtd"
  flood-color CDATA #IMPLIED>
]
>
<!-- Created with Vectornator (http://vectornator.io/) -->
<svg height="100%" stroke-miterlimit="10" style="fill-rule:nonzero;clip-rule:evenodd;stroke-linecap:round;stroke-linejoin:round;" version="1.1" viewBox="0 0 1456.4 314.6" width="100%" xml:space="preserve" xmlns="http://www.w3.org/2000/svg" xmlns:vectornator="http://vectornator.io" xmlns:xlink="http://www.w3.org/1999/xlink">
<defs>
<linearGradient gradientTransform="matrix(1 0 0 1 0 -528)" gradientUnits="userSpaceOnUse" id="LinearGradient" x1="98.3813" x2="74.1654" y1="583.173" y2="669.226">
<stop offset="0.0897351" stop-color="#6fa0d3"/>
<stop offset="0.4491" stop-color="#447fc0"/>
<stop offset="0.6614" stop-color="#3e75af"/>
<stop offset="1" stop-color="#275280"/>
</linearGradient>
<linearGradient gradientTransform="matrix(1 0 0 1 0 -528)" gradientUnits="userSpaceOnUse" id="LinearGradient_2" x1="262.267" x2="237.553" y1="667.352" y2="755.175">
<stop offset="0.0897351" stop-color="#6fa0d3"/>
<stop offset="0.4491" stop-color="#447fc0"/>
<stop offset="0.6614" stop-color="#3e75af"/>
<stop offset="1" stop-color="#275280"/>
</linearGradient>
<linearGradient gradientTransform="matrix(1 0 0 1 0 -528)" gradientUnits="userSpaceOnUse" id="LinearGradient_3" x1="303.867" x2="24.466" y1="690.176" y2="711.413">
<stop offset="0.0888248" stop-color="#fce876"/>
<stop offset="0.5171" stop-color="#ffe63f"/>
<stop offset="0.6988" stop-color="#e8cf3a"/>
<stop offset="1" stop-color="#b9a231"/>
</linearGradient>
<linearGradient gradientTransform="matrix(1 0 0 1 0 -528)" gradientUnits="userSpaceOnUse" id="LinearGradient_4" x1="300.958" x2="21.5567" y1="651.9" y2="673.138">
<stop offset="0" stop-color="#fce876"/>
<stop offset="0.163" stop-color="#ffe63f"/>
<stop offset="1" stop-color="#b9a231"/>
</linearGradient>
<linearGradient gradientTransform="matrix(1 0 0 1 0 -528)" gradientUnits="userSpaceOnUse" id="LinearGradient_5" x1="193.688" x2="132.904" y1="797.8" y2="567.461">
<stop offset="0.0901605" stop-color="#cb296b"/>
<stop offset="0.5459" stop-color="#ed3a85"/>
<stop offset="1" stop-color="#f185b5"/>
</linearGradient>
</defs>
<g id="Untitled" vectornator:layerName="Untitled">
<g opacity="1">
<path d="M962 220L962 94.2L1002.1 94.2C1021.4 94.2 1036.1 99.5 1046.1 110.2C1056.1 120.9 1061.1 136.6 1061.1 157.2C1061.1 177.8 1056.1 193.5 1046.1 204.1C1036.1 214.7 1021.4 220 1002.1 220C1002.1 220 962 220 962 220ZM979.6 204.5L999.4 204.5C1014.8 204.5 1026 200.7 1033.2 193.1C1040.4 185.5 1043.9 173.5 1043.9 157.2C1043.9 140.7 1040.3 128.7 1033.2 121.1C1026 113.5 1014.8 109.7 999.4 109.7L979.6 109.7L979.6 204.5Z" fill="#3371b8" fill-rule="evenodd" opacity="1" stroke="none"/>
<path d="M1079.9 184.2C1077.5 176.4 1076.3 167.3 1076.3 157C1076.3 146.7 1077.5 137.6 1079.9 129.8C1082.3 122 1085.4 115.8 1089.2 111.1C1093 106.5 1097.5 102.7 1102.9 99.8C1108.2 96.9 1113.5 94.9 1118.6 94C1123.7 93 1129.1 92.5 1134.9 92.5C1140.7 92.5 1146.1 93 1151.2 94C1156.3 95 1161.5 96.9 1166.9 99.8C1172.2 102.7 1176.8 106.5 1180.6 111.1C1184.4 115.7 1187.5 122 1189.9 129.8C1192.3 137.6 1193.5 146.7 1193.5 157C1193.5 167.3 1192.3 176.4 1189.9 184.2C1187.5 192 1184.4 198.2 1180.6 202.9C1176.8 207.5 1172.3 211.3 1166.9 214.2C1161.6 217.1 1156.3 219.1 1151.2 220.1C1146.1 221.1 1140.7 221.6 1134.9 221.6C1129.1 221.6 1123.7 221.1 1118.6 220.1C1113.5 219.1 1108.3 217.2 1102.9 214.2C1097.6 211.3 1093 207.5 1089.2 202.9C1085.4 198.2 1082.3 192 1079.9 184.2ZM1096.5 135.4C1094.8 141.5 1093.9 148.7 1093.9 157C1093.9 165.3 1094.8 172.5 1096.5 178.6C1098.2 184.7 1100.3 189.5 1102.9 192.8C1105.4 196.2 1108.6 198.9 1112.4 200.9C1116.2 202.9 1119.8 204.2 1123.2 204.8C1126.6 205.4 1130.5 205.6 1134.8 205.6C1139.2 205.6 1143.1 205.3 1146.5 204.8C1149.9 204.2 1153.5 203 1157.4 200.9C1161.2 198.9 1164.4 196.2 1166.9 192.8C1169.4 189.4 1171.5 184.7 1173.2 178.6C1174.9 172.5 1175.7 165.3 1175.7 157C1175.7 148.7 1174.9 141.5 1173.2 135.4C1171.5 129.3 1169.4 124.5 1166.9 121.2C1164.4 117.8 1161.2 115.1 1157.4 113.1C1153.6 111.1 1149.9 109.8 1146.5 109.2C1143.1 108.6 1139.2 108.4 1134.8 108.4C1130.4 108.4 1126.5 108.7 1123.2 109.2C1119.8 109.8 1116.2 111 1112.4 113.1C1108.6 115.2 1105.4 117.8 1102.9 121.2C1100.3 124.5 1098.2 129.3 1096.5 135.4Z" fill="#3371b8" fill-rule="evenodd" opacity="1" stroke="none"/>
<path d="M1209.9 184.2C1207.6 176.4 1206.4 167.3 1206.4 157C1206.4 146.7 1207.6 137.6 1209.9 129.8C1212.2 122 1215.2 115.8 1218.9 111.1C1222.6 106.5 1227.1 102.7 1232.4 99.8C1237.7 96.9 1243 94.9 1248.1 94C1253.2 93 1258.6 92.5 1264.4 92.5C1277.5 92.5 1290.3 95 1302.9 100L1302.9 116.3C1291 111 1278.9 108.4 1266.4 108.4C1251.5 108.4 1240.8 112.2 1234.1 119.9C1227.4 127.5 1224.1 139.9 1224.1 157.1C1224.1 174.1 1227.4 186.4 1234.1 194.1C1240.8 201.8 1251.6 205.7 1266.4 205.7C1278.9 205.7 1291 203.1 1302.9 197.8L1302.9 214C1290.3 219 1277.5 221.6 1264.4 221.6C1258.6 221.6 1253.2 221.1 1248.1 220.1C1243 219.1 1237.8 217.2 1232.4 214.2C1227.1 211.3 1222.6 207.5 1218.9 202.9C1215.2 198.2 1212.2 192 1209.9 184.2Z" fill="#3371b8" fill-rule="evenodd" opacity="1" stroke="none"/>
<path d="M1317 128.2C1317 118.4 1320.6 110 1327.7 103.1C1334.9 96.2 1345.9 92.8 1360.9 92.8C1372.2 92.8 1383 95.4 1393.3 100.5L1393.3 117.6C1384.1 112 1374 109.2 1363 109.2C1344 109.2 1334.5 115.6 1334.5 128.3C1334.5 131.7 1336.2 134.7 1339.5 137.2C1342.8 139.7 1347 141.8 1351.9 143.3C1356.8 144.8 1362.2 146.8 1368 149.2C1373.8 151.6 1379.2 154.2 1384.1 156.9C1389 159.6 1393.1 163.6 1396.5 168.9C1399.8 174.2 1401.5 180.3 1401.5 187.3C1401.5 198 1397.5 206.4 1389.4 212.5C1381.3 218.5 1370.2 221.6 1356 221.6C1343.4 221.6 1330.9 218.6 1318.6 212.6L1318.6 194.5C1330.3 201.6 1342.2 205.2 1354.5 205.2C1374.1 205.2 1383.9 199.2 1383.9 187.3C1383.9 182.2 1382.2 177.9 1378.9 174.3C1375.6 170.7 1371.5 168.1 1366.6 166.5L1350.4 161C1344.5 159 1339.1 156.9 1334.2 154.7C1329.3 152.6 1325.2 149.2 1321.9 144.7C1318.6 140.1 1317 134.6 1317 128.2Z" fill="#3371b8" fill-rule="evenodd" opacity="1" stroke="none"/>
</g>
<g opacity="1">
<g opacity="1">
<path d="M371.9 220.1L371.9 94L423.5 94C444.8 94 460.6 99.3 470.4 109.7C479.8 119.7 485.3 137.8 485.3 159.5C485.3 179.2 480.4 194 470.4 204.5C460.6 214.9 444.8 220.2 423.5 220.2L371.9 220.1L371.9 220.1ZM403.9 196.2L419.4 196.2C429.9 196.2 438.2 193.1 443.9 187.1C449.7 180.9 452.5 172.1 452.5 159.4C452.5 148.1 450.3 133.6 443.9 126.9C438.2 120.9 430 117.8 419.4 117.8L403.9 117.8L403.9 196.2Z" fill="#ffffff" fill-rule="evenodd" opacity="1" stroke="none"/>
<path d="M372.8 219.2L372.8 94.9L423.5 94.9C444.5 94.9 460.1 100.1 469.8 110.3C479.1 120.1 484.4 138 484.4 159.4C484.4 178.9 479.6 193.4 469.8 203.8C460.1 214 444.6 219.2 423.5 219.2L372.8 219.2L372.8 219.2ZM403 197.1L419.4 197.1C430.2 197.1 438.6 194 444.5 187.7C450.5 181.3 453.3 172.3 453.3 159.3C453.3 147.8 451 133.1 444.5 126.2C438.6 120 430.2 116.8 419.4 116.8L403 116.8L403 197.1Z" fill="#ffffff" fill-rule="evenodd" opacity="1" stroke="none"/>
<path d="M542.8 220.2C533.2 220.2 524.7 218.2 517.4 214.4C510.2 210.6 504.4 205 500.4 197.9C496.4 190.8 494.3 182.2 494.3 172.4C494.3 156.1 498.5 143.2 506.6 134.2C514.8 125.2 526.7 120.6 542.1 120.6C552.4 120.6 560.8 122.8 567.1 127.2C573.4 131.6 578.2 138.2 581.2 146.8C584.2 155.3 585.7 165.9 585.7 178.2L524.1 178.2L524.4 179.5C525.4 183.4 527.2 186.8 529.5 189.4C533.8 194.2 540.8 196.6 550.5 196.6C554 196.6 557.5 196.2 560.9 195.3C564.3 194.5 567.5 193.5 570.5 192.3C572.7 191.5 574.7 190.7 576.3 190.1L576.3 214.3C572.1 215.8 567.4 217.2 562.2 218.3C556.9 219.6 550.3 220.2 542.8 220.2ZM540.7 141.8C537.5 141.8 534.5 142.7 531.8 144.5C529.1 146.3 527 149.2 525.5 153.2C524.8 155.1 524.2 157.4 523.8 160L523.6 161.2L557.1 161.2L557 160C556.4 155 555.2 151.1 553.6 148.4C551.1 144 546.7 141.8 540.7 141.8Z" fill="#ffffff" fill-rule="evenodd" opacity="1" stroke="none"/>
<path d="M542.8 219.3C533.4 219.3 525 217.4 517.8 213.6C510.7 209.8 505.1 204.4 501.2 197.4C497.2 190.4 495.2 181.9 495.2 172.3C495.2 156.2 499.3 143.5 507.3 134.7C515.3 125.9 527 121.4 542.2 121.4C552.3 121.4 560.5 123.6 566.7 127.8C572.8 132.1 577.5 138.5 580.5 147C583.4 155.2 584.9 165.3 584.9 177.1L523.1 177.1L523.7 179.5C524.8 183.6 526.6 187 529 189.8C533.4 194.8 540.7 197.3 550.7 197.3C554.2 197.3 557.8 196.9 561.3 196C564.7 195.2 568 194.2 571 193C572.7 192.3 574.3 191.8 575.6 191.3L575.6 213.5C571.6 214.9 567.1 216.2 562.2 217.3C556.8 218.7 550.3 219.3 542.8 219.3ZM540.7 140.9C537.3 140.9 534.2 141.9 531.3 143.8C528.5 145.7 526.2 148.8 524.6 152.9C523.8 154.9 523.3 157.3 522.9 159.9L522.6 162.1L558.2 162.1L557.9 159.9C557.2 154.7 556.1 150.7 554.4 148C551.7 143.2 547.1 140.9 540.7 140.9Z" fill="#ffffff" fill-rule="evenodd" opacity="1" stroke="none"/>
<path d="M600.3 220.2L600.3 94L658.3 94C672.7 94 684.2 97.3 692.6 103.8C700.9 110.2 705.1 120.5 705.1 134.4C705.1 148.2 700.9 159 692.6 166.5C684.2 174 672.7 177.8 658.4 177.8L632.3 177.8L632.3 220.3L600.3 220.3C600.3 220.3 600.3 220.2 600.3 220.2ZM632.3 153.8L654 153.8C656.5 153.8 658.8 153.4 660.8 152.7C662.9 152 664.7 150.8 666 149.2C667.3 147.7 668.4 145.8 669.1 143.7C669.8 141.6 670.2 139.2 670.2 136.6C670.2 133.6 669.8 131 669.1 128.8C668.4 126.6 667.3 124.6 666 122.9C664.6 121.2 662.9 119.9 660.8 119.1C658.7 118.3 656.4 117.9 653.9 117.9L632.2 117.9L632.2 153.8L632.3 153.8L632.3 153.8Z" fill="#ffffff" fill-rule="evenodd" opacity="1" stroke="none"/>
<path d="M601.2 219.3L601.2 94.9L658.3 94.9C672.5 94.9 683.8 98.1 692 104.5C700.1 110.7 704.1 120.8 704.1 134.4C704.1 147.9 700 158.5 691.9 165.8C683.7 173.1 672.4 176.9 658.3 176.9L631.3 176.9L631.3 219.4L601.2 219.3L601.2 219.3ZM631.4 154.7L654 154.7C656.6 154.7 659 154.3 661.1 153.6C663.3 152.8 665.2 151.5 666.7 149.8C668.1 148.2 669.2 146.2 670 144C670.8 141.8 671.1 139.3 671.1 136.6C671.1 133.5 670.7 130.8 670 128.5C669.2 126.2 668.1 124.1 666.8 122.3C665.3 120.5 663.4 119.1 661.2 118.2C659 117.4 656.6 116.9 654 116.9L631.4 116.9L631.4 154.7L631.4 154.7Z" fill="#ffffff" fill-rule="evenodd" opacity="1" stroke="none"/>
<path d="M750.1 220.2C744.1 220.2 738.4 219.7 733.3 218.6C728.2 217.6 723.8 215.8 720 213.4C716.3 211 713.3 207.7 711.2 203.5C709.1 199.3 708 194 708 187.8C708 182.5 709.2 177.7 711.4 173.6C713.7 169.5 717.3 166.3 722.1 163.9C726.9 161.5 733.2 160.2 740.8 160.2C744.8 160.2 748.9 160.7 752.8 161.6C756.7 162.5 760.3 163.8 763.5 165.3C764.3 165.7 765 166.1 765.7 166.4L767.2 167.3L767.2 160.9C767.2 155 765.2 150.7 761.4 148.1C757.7 145.5 752.4 144.3 745.7 144.3C740 144.3 734.1 145.4 728.4 147.6C723.6 149.4 719.6 151.4 716.4 153.6L716.4 129C719.3 127.2 724.1 125.4 730.6 123.8C737.4 122.1 745.4 121.2 754.3 121.2C756.9 121.2 760 121.4 763.7 121.9C767.3 122.3 771 123.2 774.8 124.4C778.5 125.6 782 127.4 785.2 129.8C788.4 132.1 791 135.3 792.9 139.2C794.8 143.1 795.8 148.1 795.8 154.1L795.6 198.9C795.6 203.8 794 207.7 790.6 210.9C787.2 214.1 782.1 216.6 775.4 218.1C768.6 219.4 760.1 220.2 750.1 220.2ZM754.2 177.9C748.2 177.9 743.9 178.7 741.2 180.4C738.3 182.2 736.8 185 736.8 188.9C736.8 191.1 737.5 193.2 738.8 195C740.1 196.8 741.8 198.2 743.9 199.3C746 200.4 748.3 200.9 750.7 200.9C756.9 200.9 761 200.5 763.4 199.7C766 198.8 767.4 196.8 767.4 194L767.4 180L766.7 179.8C765.9 179.6 765.2 179.3 764.4 179.1C761.1 178.3 757.7 177.9 754.2 177.9Z" fill="#ffffff" fill-rule="evenodd" opacity="1" stroke="none"/>
<path d="M750.1 219.3C744.1 219.3 738.5 218.8 733.5 217.7C728.5 216.7 724.2 215 720.5 212.6C716.9 210.3 714.1 207.1 712.1 203C710.1 198.9 709 193.8 709 187.7C709 182.5 710.1 177.9 712.3 174C714.5 170.1 717.9 166.9 722.6 164.6C727.3 162.2 733.5 161 740.9 161C744.9 161 748.8 161.5 752.7 162.4C756.5 163.3 760.1 164.5 763.2 166C764 166.4 764.7 166.7 765.3 167.1L768.2 168.7L768.2 160.7C768.2 154.5 766.1 150 762 147.2C758.1 144.5 752.6 143.2 745.8 143.2C739.9 143.2 734 144.3 728.2 146.5C724 148.1 720.4 149.8 717.5 151.7L717.5 129.3C720.4 127.6 724.9 126 731 124.5C737.8 122.8 745.7 121.9 754.5 121.9C757 121.9 760.2 122.1 763.8 122.5C767.4 122.9 771 123.7 774.7 125C778.3 126.2 781.7 128 784.9 130.3C788 132.5 790.4 135.6 792.3 139.4C794.2 143.2 795.1 148.1 795.1 153.9L794.9 198.7C794.9 203.3 793.3 207.1 790.1 210.1C786.8 213.2 781.8 215.6 775.3 217C768.5 218.5 760.1 219.3 750.1 219.3ZM754.2 177C748 177 743.6 177.9 740.7 179.6C737.5 181.5 735.9 184.7 735.9 188.9C735.9 191.3 736.6 193.5 738.1 195.5C739.5 197.4 741.3 198.9 743.5 200C745.7 201.1 748.1 201.7 750.7 201.7C757 201.7 761.2 201.3 763.7 200.5C766.7 199.5 768.3 197.2 768.3 194L768.3 179.4L767 179C766.2 178.8 765.4 178.5 764.6 178.3C761.2 177.4 757.8 177 754.2 177Z" fill="#ffffff" fill-rule="evenodd" opacity="1" stroke="none"/>
<path d="M830.6 254.3C827.3 254.3 824 254 820.7 253.4C817.7 252.8 815.1 252.1 812.8 251.1L812.8 228.2C814.7 228.8 816.4 229.2 817.9 229.5C819.8 229.9 821.7 230.1 823.7 230.1C826.8 230.1 829.5 229.4 831.9 228C834.3 226.6 836.4 224.1 838 220.6C838.4 219.7 838.8 218.7 839.1 217.6L839.2 217.2L799.7 120.6L833 120.6L853.8 186.1L872.6 120.6L903.8 120.6L867.6 218C864.1 226.9 860.4 234.1 856.4 239.5C852.5 244.8 848.3 248.7 844 251C839.7 253.1 835.2 254.3 830.6 254.3Z" fill="#ffffff" fill-rule="evenodd" opacity="1" stroke="none"/>
<path d="M830.6 253.4C827.4 253.4 824.1 253.1 820.9 252.5C818.2 252 815.8 251.3 813.7 250.5L813.7 229.4C815.1 229.8 816.5 230.1 817.7 230.4C819.6 230.8 821.6 231 823.6 231C826.8 231 829.7 230.2 832.3 228.8C834.9 227.3 837.1 224.7 838.7 221C839.1 220.1 839.5 219 839.9 217.9L840.1 217.2L801 121.5L832.2 121.5L853.7 189.2L873.1 121.5L902.3 121.5L866.6 217.7C863.2 226.5 859.5 233.7 855.6 239C851.8 244.2 847.7 248 843.5 250.2C839.4 252.2 835 253.4 830.6 253.4Z" fill="#ffffff" fill-rule="evenodd" opacity="1" stroke="none"/>
</g>
<g opacity="1">
<path d="M5.70001 157.3C5.70001 70.6465 75.9465 0.400009 162.6 0.400009C249.253 0.400009 319.5 70.6465 319.5 157.3C319.5 243.953 249.253 314.2 162.6 314.2C75.9465 314.2 5.70001 243.953 5.70001 157.3Z" fill="#ffffff" fill-rule="evenodd" opacity="1" stroke="none"/>
<g opacity="1">
<path d="M77.6 152.2C67.3 138.4 63.4 126 68.2 117.8C73.9 108 90.7 106.2 112.6 111.1C114.7 100.1 117.5 89.8 120.9 80.7C91.1 75 67.3 79.4 58.2 94.7C49.3 109.8 56.7 132.2 75.3 154.9C76 154.1 76.8 153.1 77.6 152.2Z" fill="url(#LinearGradient)" fill-rule="evenodd" opacity="1" stroke="none"/>
<path d="M77.6 152.2C77 151.5 76.5 150.7 76 150C75.2 151 74.5 152 73.7 153C74.2 153.7 74.8 154.3 75.3 155C76 154.1 76.8 153.1 77.6 152.2Z" fill="#000000" fill-rule="evenodd" opacity="0.3" stroke="none"/>
<path d="M112.6 111.1C114.7 100.1 117.5 89.8 120.9 80.7C117.1 80 113.3 79.4 109.7 79C106.2 88.1 103.3 98.2 101.1 109.1C104.7 109.5 108.6 110.2 112.6 111.1Z" fill="#000000" fill-rule="evenodd" opacity="0.3" stroke="none"/>
<path d="M248.4 155C242 162.6 234.3 170.2 225.6 177.5C240.5 194.2 247 209.8 241.3 219.5C236.7 227.4 224.9 230.1 209.1 228.3C208.7 229.7 208.2 231 207.7 232.3C236.2 237.2 259 232.7 267.7 217.8C276.9 202.3 268.6 178.7 248.4 155Z" fill="url(#LinearGradient_2)" fill-rule="evenodd" opacity="1" stroke="none"/>
<path d="M248.4 155C242 162.6 234.3 170.2 225.6 177.5C227.5 179.6 229.2 181.7 230.8 183.7C239.3 176.2 246.8 168.4 253 160.6C251.5 158.8 250 156.9 248.4 155Z" fill="#000000" fill-rule="evenodd" opacity="0.3" stroke="none"/>
<path d="M209.1 228.5C208.7 229.9 208.2 231.2 207.7 232.5C208 232.5 208.3 232.6 208.5 232.6C209 231.3 209.5 229.9 210 228.5C209.7 228.5 209.4 228.5 209.1 228.5Z" fill="#000000" fill-rule="evenodd" opacity="0.3" stroke="none"/>
<path d="M111.8 199.2C90.7 203.7 74.5 201.6 68.9 192.1C60.5 177.8 78.3 151.2 110.2 126.7C110.4 125.1 110.6 123.5 110.8 122C67.5 154.1 44.2 193.4 57.5 216C66.5 231.3 90 235.7 119.5 230.2C116.3 220.8 113.7 210.4 111.8 199.2Z" fill="url(#LinearGradient_3)" fill-rule="evenodd" opacity="1" stroke="none"/>
<path d="M267.1 92.9C258.3 77.8 235.2 73.3 206.3 78.5C206.7 79.6 207.2 80.7 207.6 81.8C224.6 79.5 237.3 82.1 242.1 90.4C248.7 101.6 239.1 120.6 219.1 140.1C219.5 145.7 219.7 151.5 219.7 157.3C219.7 166.3 219.2 175.1 218.4 183.5C258.7 152 279.9 114.8 267.1 92.9Z" fill="url(#LinearGradient_4)" fill-rule="evenodd" opacity="1" stroke="none"/>
<g opacity="1">
<path d="M100.5 201C102.6 212.1 105.4 222.4 108.9 231.8C112.3 231.4 115.9 230.9 119.6 230.2C116.4 220.8 113.8 210.4 111.9 199.2C107.9 200 104.1 200.6 100.5 201Z" fill="#000000" fill-rule="evenodd" opacity="0.3" stroke="none"/>
<path d="M110.2 126.7C110.4 125.1 110.6 123.5 110.8 122C106.2 125.4 101.8 129 97.6 132.5C97.4 134.2 97.3 135.8 97.2 137.5C101.2 133.8 105.5 130.2 110.2 126.7Z" fill="#000000" fill-rule="evenodd" opacity="0.3" stroke="none"/>
</g>
<g opacity="1">
<path d="M219 140.1C219.4 145.7 219.6 151.5 219.6 157.3C219.6 166.3 219.1 175.1 218.3 183.5C218.8 183.1 219.4 182.7 219.9 182.2C220.8 173.9 221.2 165.2 221.2 156.4C221.2 150.3 221 144.3 220.6 138.5C220.1 139.1 219.5 139.6 219 140.1Z" fill="#000000" fill-rule="evenodd" opacity="0.3" stroke="none"/>
<path d="M209 81.6C208.6 80.5 208.1 79.3 207.7 78.2C207.2 78.3 206.8 78.4 206.3 78.4C206.7 79.5 207.2 80.6 207.6 81.7C208 81.7 208.5 81.7 209 81.6Z" fill="#000000" fill-rule="evenodd" opacity="0.3" stroke="none"/>
</g>
<path d="M164 35.8C133.3 35.8 108.4 90.2 108.4 157.3C108.4 224.4 133.3 278.8 164 278.8C194.7 278.8 219.6 224.4 219.6 157.3C219.6 90.2 194.7 35.8 164 35.8ZM178.8 258.5C158.2 258.5 141.4 213.5 141.4 158.1C141.4 102.6 158.1 57.7 178.8 57.7C199.4 57.7 216.2 102.7 216.2 158.1C216.2 213.6 199.5 258.5 178.8 258.5Z" fill="url(#LinearGradient_5)" fill-rule="evenodd" opacity="1" stroke="none"/>
</g>
</g>
</g>
</g>
</svg>
