<?xml version="1.0" encoding="utf-8"?>
<!-- Generator: Adobe Illustrator 26.0.1, SVG Export Plug-In . SVG Version: 6.00 Build 0)  -->
<svg version="1.1" id="Wordmark" xmlns="http://www.w3.org/2000/svg" xmlns:xlink="http://www.w3.org/1999/xlink" x="0px" y="0px"
	 viewBox="0 0 1456.4 314.6" style="enable-background:new 0 0 1456.4 314.6;" xml:space="preserve">
<style type="text/css">
	.st0{fill:#3371B8;}
	.st1{font-family:'MavenProMedium';}
	.st2{font-size:188.6892px;}
	.st3{letter-spacing:-8;}
	.st4{fill:#04364C;}
	.st5{fill:#FFFFFF;}
	.st6{fill:url(#SVGID_1_);}
	.st7{opacity:0.3;enable-background:new    ;}
	.st8{fill:url(#SVGID_00000077319664379618490640000010400705741805568957_);}
	.st9{fill:url(#SVGID_00000098186320591064655200000007707447576547110019_);}
	.st10{fill:url(#SVGID_00000153686132904935494520000002019962319210137002_);}
	.st11{fill:url(#SVGID_00000141416957506243861440000015468202030529165501_);}
</style>
<text transform="matrix(1 0 0 1 945.5665 220.0278)" class="st0 st1 st2 st3">DOCS</text>
<g>
	<g id="Text_00000142153454512442563100000014113181760776693410_">
		<path class="st4" d="M371.9,220.1V94h51.6c21.3,0,37.1,5.3,46.9,15.7c9.4,10,14.9,28.1,14.9,49.8c0,19.7-4.9,34.5-14.9,45
			c-9.8,10.4-25.6,15.7-46.9,15.7L371.9,220.1L371.9,220.1z M403.9,196.2h15.5c10.5,0,18.8-3.1,24.5-9.1c5.8-6.2,8.6-15,8.6-27.7
			c0-11.3-2.2-25.8-8.6-32.5c-5.7-6-13.9-9.1-24.5-9.1h-15.5V196.2z"/>
		<path class="st4" d="M372.8,219.2V94.9h50.7c21,0,36.6,5.2,46.3,15.4c9.3,9.8,14.6,27.7,14.6,49.1c0,19.5-4.8,34-14.6,44.4
			c-9.7,10.2-25.2,15.4-46.3,15.4L372.8,219.2L372.8,219.2z M403,197.1h16.4c10.8,0,19.2-3.1,25.1-9.4c6-6.4,8.8-15.4,8.8-28.4
			c0-11.5-2.3-26.2-8.8-33.1c-5.9-6.2-14.3-9.4-25.1-9.4H403V197.1z"/>
		<path class="st4" d="M542.8,220.2c-9.6,0-18.1-2-25.4-5.8c-7.2-3.8-13-9.4-17-16.5s-6.1-15.7-6.1-25.5c0-16.3,4.2-29.2,12.3-38.2
			c8.2-9,20.1-13.6,35.5-13.6c10.3,0,18.7,2.2,25,6.6c6.3,4.4,11.1,11,14.1,19.6c3,8.5,4.5,19.1,4.5,31.4h-61.6l0.3,1.3
			c1,3.9,2.8,7.3,5.1,9.9c4.3,4.8,11.3,7.2,21,7.2c3.5,0,7-0.4,10.4-1.3c3.4-0.8,6.6-1.8,9.6-3c2.2-0.8,4.2-1.6,5.8-2.2v24.2
			c-4.2,1.5-8.9,2.9-14.1,4C556.9,219.6,550.3,220.2,542.8,220.2z M540.7,141.8c-3.2,0-6.2,0.9-8.9,2.7s-4.8,4.7-6.3,8.7
			c-0.7,1.9-1.3,4.2-1.7,6.8l-0.2,1.2h33.5L557,160c-0.6-5-1.8-8.9-3.4-11.6C551.1,144,546.7,141.8,540.7,141.8z"/>
		<path class="st4" d="M542.8,219.3c-9.4,0-17.8-1.9-25-5.7c-7.1-3.8-12.7-9.2-16.6-16.2c-4-7-6-15.5-6-25.1
			c0-16.1,4.1-28.8,12.1-37.6c8-8.8,19.7-13.3,34.9-13.3c10.1,0,18.3,2.2,24.5,6.4c6.1,4.3,10.8,10.7,13.8,19.2
			c2.9,8.2,4.4,18.3,4.4,30.1h-61.8l0.6,2.4c1.1,4.1,2.9,7.5,5.3,10.3c4.4,5,11.7,7.5,21.7,7.5c3.5,0,7.1-0.4,10.6-1.3
			c3.4-0.8,6.7-1.8,9.7-3c1.7-0.7,3.3-1.2,4.6-1.7v22.2c-4,1.4-8.5,2.7-13.4,3.8C556.8,218.7,550.3,219.3,542.8,219.3z M540.7,140.9
			c-3.4,0-6.5,1-9.4,2.9c-2.8,1.9-5.1,5-6.7,9.1c-0.8,2-1.3,4.4-1.7,7l-0.3,2.2h35.6l-0.3-2.2c-0.7-5.2-1.8-9.2-3.5-11.9
			C551.7,143.2,547.1,140.9,540.7,140.9z"/>
		<path class="st4" d="M600.3,220.2V94h58c14.4,0,25.9,3.3,34.3,9.8c8.3,6.4,12.5,16.7,12.5,30.6c0,13.8-4.2,24.6-12.5,32.1
			c-8.4,7.5-19.9,11.3-34.2,11.3h-26.1v42.5h-32V220.2z M632.3,153.8H654c2.5,0,4.8-0.4,6.8-1.1c2.1-0.7,3.9-1.9,5.2-3.5
			c1.3-1.5,2.4-3.4,3.1-5.5c0.7-2.1,1.1-4.5,1.1-7.1c0-3-0.4-5.6-1.1-7.8c-0.7-2.2-1.8-4.2-3.1-5.9c-1.4-1.7-3.1-3-5.2-3.8
			c-2.1-0.8-4.4-1.2-6.9-1.2h-21.7v35.9H632.3z"/>
		<path class="st4" d="M601.2,219.3V94.9h57.1c14.2,0,25.5,3.2,33.7,9.6c8.1,6.2,12.1,16.3,12.1,29.9c0,13.5-4.1,24.1-12.2,31.4
			c-8.2,7.3-19.5,11.1-33.6,11.1h-27v42.5L601.2,219.3L601.2,219.3z M631.4,154.7H654c2.6,0,5-0.4,7.1-1.1c2.2-0.8,4.1-2.1,5.6-3.8
			c1.4-1.6,2.5-3.6,3.3-5.8s1.1-4.7,1.1-7.4c0-3.1-0.4-5.8-1.1-8.1c-0.8-2.3-1.9-4.4-3.2-6.2c-1.5-1.8-3.4-3.2-5.6-4.1
			c-2.2-0.8-4.6-1.3-7.2-1.3h-22.6L631.4,154.7L631.4,154.7z"/>
		<path class="st4" d="M750.1,220.2c-6,0-11.7-0.5-16.8-1.6c-5.1-1-9.5-2.8-13.3-5.2c-3.7-2.4-6.7-5.7-8.8-9.9s-3.2-9.5-3.2-15.7
			c0-5.3,1.2-10.1,3.4-14.2c2.3-4.1,5.9-7.3,10.7-9.7s11.1-3.7,18.7-3.7c4,0,8.1,0.5,12,1.4s7.5,2.2,10.7,3.7
			c0.8,0.4,1.5,0.8,2.2,1.1l1.5,0.9v-6.4c0-5.9-2-10.2-5.8-12.8c-3.7-2.6-9-3.8-15.7-3.8c-5.7,0-11.6,1.1-17.3,3.3
			c-4.8,1.8-8.8,3.8-12,6V129c2.9-1.8,7.7-3.6,14.2-5.2c6.8-1.7,14.8-2.6,23.7-2.6c2.6,0,5.7,0.2,9.4,0.7c3.6,0.4,7.3,1.3,11.1,2.5
			c3.7,1.2,7.2,3,10.4,5.4c3.2,2.3,5.8,5.5,7.7,9.4s2.9,8.9,2.9,14.9l-0.2,44.8c0,4.9-1.6,8.8-5,12s-8.5,5.7-15.2,7.2
			C768.6,219.4,760.1,220.2,750.1,220.2z M754.2,177.9c-6,0-10.3,0.8-13,2.5c-2.9,1.8-4.4,4.6-4.4,8.5c0,2.2,0.7,4.3,2,6.1
			s3,3.2,5.1,4.3s4.4,1.6,6.8,1.6c6.2,0,10.3-0.4,12.7-1.2c2.6-0.9,4-2.9,4-5.7v-14l-0.7-0.2c-0.8-0.2-1.5-0.5-2.3-0.7
			C761.1,178.3,757.7,177.9,754.2,177.9z"/>
		<path class="st4" d="M750.1,219.3c-6,0-11.6-0.5-16.6-1.6c-5-1-9.3-2.7-13-5.1c-3.6-2.3-6.4-5.5-8.4-9.6s-3.1-9.2-3.1-15.3
			c0-5.2,1.1-9.8,3.3-13.7s5.6-7.1,10.3-9.4c4.7-2.4,10.9-3.6,18.3-3.6c4,0,7.9,0.5,11.8,1.4c3.8,0.9,7.4,2.1,10.5,3.6
			c0.8,0.4,1.5,0.7,2.1,1.1l2.9,1.6v-8c0-6.2-2.1-10.7-6.2-13.5c-3.9-2.7-9.4-4-16.2-4c-5.9,0-11.8,1.1-17.6,3.3
			c-4.2,1.6-7.8,3.3-10.7,5.2v-22.4c2.9-1.7,7.4-3.3,13.5-4.8c6.8-1.7,14.7-2.6,23.5-2.6c2.5,0,5.7,0.2,9.3,0.6s7.2,1.2,10.9,2.5
			c3.6,1.2,7,3,10.2,5.3c3.1,2.2,5.5,5.3,7.4,9.1s2.8,8.7,2.8,14.5l-0.2,44.8c0,4.6-1.6,8.4-4.8,11.4c-3.3,3.1-8.3,5.5-14.8,6.9
			C768.5,218.5,760.1,219.3,750.1,219.3z M754.2,177c-6.2,0-10.6,0.9-13.5,2.6c-3.2,1.9-4.8,5.1-4.8,9.3c0,2.4,0.7,4.6,2.2,6.6
			c1.4,1.9,3.2,3.4,5.4,4.5s4.6,1.7,7.2,1.7c6.3,0,10.5-0.4,13-1.2c3-1,4.6-3.3,4.6-6.5v-14.6L767,179c-0.8-0.2-1.6-0.5-2.4-0.7
			C761.2,177.4,757.8,177,754.2,177z"/>
		<path class="st4" d="M830.6,254.3c-3.3,0-6.6-0.3-9.9-0.9c-3-0.6-5.6-1.3-7.9-2.3v-22.9c1.9,0.6,3.6,1,5.1,1.3
			c1.9,0.4,3.8,0.6,5.8,0.6c3.1,0,5.8-0.7,8.2-2.1c2.4-1.4,4.5-3.9,6.1-7.4c0.4-0.9,0.8-1.9,1.1-3l0.1-0.4l-39.5-96.6H833l20.8,65.5
			l18.8-65.5h31.2L867.6,218c-3.5,8.9-7.2,16.1-11.2,21.5c-3.9,5.3-8.1,9.2-12.4,11.5C839.7,253.1,835.2,254.3,830.6,254.3z"/>
		<path class="st4" d="M830.6,253.4c-3.2,0-6.5-0.3-9.7-0.9c-2.7-0.5-5.1-1.2-7.2-2v-21.1c1.4,0.4,2.8,0.7,4,1
			c1.9,0.4,3.9,0.6,5.9,0.6c3.2,0,6.1-0.8,8.7-2.2c2.6-1.5,4.8-4.1,6.4-7.8c0.4-0.9,0.8-2,1.2-3.1l0.2-0.7L801,121.5h31.2l21.5,67.7
			l19.4-67.7h29.2l-35.7,96.2c-3.4,8.8-7.1,16-11,21.3c-3.8,5.2-7.9,9-12.1,11.2C839.4,252.2,835,253.4,830.6,253.4z"/>
	</g>
	<g id="Logo_00000113354540007889316140000014440495299262394241_">
		<circle id="Circle_00000040537712671145443240000001545384219573553832_" class="st5" cx="162.6" cy="157.3" r="156.9"/>
		<g id="Logo_00000131353481917118057690000010489182587420311718_">
			
				<linearGradient id="SVGID_1_" gradientUnits="userSpaceOnUse" x1="98.3813" y1="258.7166" x2="74.1654" y2="172.664" gradientTransform="matrix(1 0 0 -1 0 313.8898)">
				<stop  offset="8.973507e-02" style="stop-color:#6FA0D3"/>
				<stop  offset="0.4491" style="stop-color:#447FC0"/>
				<stop  offset="0.6614" style="stop-color:#3E75AF"/>
				<stop  offset="1" style="stop-color:#275280"/>
			</linearGradient>
			<path class="st6" d="M77.6,152.2c-10.3-13.8-14.2-26.2-9.4-34.4c5.7-9.8,22.5-11.6,44.4-6.7c2.1-11,4.9-21.3,8.3-30.4
				c-29.8-5.7-53.6-1.3-62.7,14c-8.9,15.1-1.5,37.5,17.1,60.2C76,154.1,76.8,153.1,77.6,152.2z"/>
			<path class="st7" d="M77.6,152.2c-0.6-0.7-1.1-1.5-1.6-2.2c-0.8,1-1.5,2-2.3,3c0.5,0.7,1.1,1.3,1.6,2
				C76,154.1,76.8,153.1,77.6,152.2z"/>
			<path class="st7" d="M112.6,111.1c2.1-11,4.9-21.3,8.3-30.4c-3.8-0.7-7.6-1.3-11.2-1.7c-3.5,9.1-6.4,19.2-8.6,30.1
				C104.7,109.5,108.6,110.2,112.6,111.1z"/>
			
				<linearGradient id="SVGID_00000098900798216511467500000002113441155216782769_" gradientUnits="userSpaceOnUse" x1="262.2672" y1="174.5377" x2="237.5532" y2="86.7147" gradientTransform="matrix(1 0 0 -1 0 313.8898)">
				<stop  offset="8.973507e-02" style="stop-color:#6FA0D3"/>
				<stop  offset="0.4491" style="stop-color:#447FC0"/>
				<stop  offset="0.6614" style="stop-color:#3E75AF"/>
				<stop  offset="1" style="stop-color:#275280"/>
			</linearGradient>
			<path style="fill:url(#SVGID_00000098900798216511467500000002113441155216782769_);" d="M248.4,155
				c-6.4,7.6-14.1,15.2-22.8,22.5c14.9,16.7,21.4,32.3,15.7,42c-4.6,7.9-16.4,10.6-32.2,8.8c-0.4,1.4-0.9,2.7-1.4,4
				c28.5,4.9,51.3,0.4,60-14.5C276.9,202.3,268.6,178.7,248.4,155z"/>
			<path class="st7" d="M248.4,155c-6.4,7.6-14.1,15.2-22.8,22.5c1.9,2.1,3.6,4.2,5.2,6.2c8.5-7.5,16-15.3,22.2-23.1
				C251.5,158.8,250,156.9,248.4,155z"/>
			<path class="st7" d="M209.1,228.5c-0.4,1.4-0.9,2.7-1.4,4c0.3,0,0.6,0.1,0.8,0.1c0.5-1.3,1-2.7,1.5-4.1
				C209.7,228.5,209.4,228.5,209.1,228.5z"/>
			
				<linearGradient id="SVGID_00000017500293397907080560000002765197698570404022_" gradientUnits="userSpaceOnUse" x1="303.8673" y1="151.7137" x2="24.466" y2="130.4765" gradientTransform="matrix(1 0 0 -1 0 313.8898)">
				<stop  offset="8.882481e-02" style="stop-color:#FCE876"/>
				<stop  offset="0.5171" style="stop-color:#FFE63F"/>
				<stop  offset="0.6988" style="stop-color:#E8CF3A"/>
				<stop  offset="1" style="stop-color:#B9A231"/>
			</linearGradient>
			<path style="fill:url(#SVGID_00000017500293397907080560000002765197698570404022_);" d="M111.8,199.2
				c-21.1,4.5-37.3,2.4-42.9-7.1c-8.4-14.3,9.4-40.9,41.3-65.4c0.2-1.6,0.4-3.2,0.6-4.7c-43.3,32.1-66.6,71.4-53.3,94
				c9,15.3,32.5,19.7,62,14.2C116.3,220.8,113.7,210.4,111.8,199.2z"/>
			
				<linearGradient id="SVGID_00000147211787008036571560000004849393601800504978_" gradientUnits="userSpaceOnUse" x1="300.958" y1="189.9897" x2="21.5567" y2="168.7524" gradientTransform="matrix(1 0 0 -1 0 313.8898)">
				<stop  offset="0" style="stop-color:#FCE876"/>
				<stop  offset="0.163" style="stop-color:#FFE63F"/>
				<stop  offset="1" style="stop-color:#B9A231"/>
			</linearGradient>
			<path style="fill:url(#SVGID_00000147211787008036571560000004849393601800504978_);" d="M267.1,92.9
				c-8.8-15.1-31.9-19.6-60.8-14.4c0.4,1.1,0.9,2.2,1.3,3.3c17-2.3,29.7,0.3,34.5,8.6c6.6,11.2-3,30.2-23,49.7
				c0.4,5.6,0.6,11.4,0.6,17.2c0,9-0.5,17.8-1.3,26.2C258.7,152,279.9,114.8,267.1,92.9z"/>
			<g>
				<path class="st7" d="M100.5,201c2.1,11.1,4.9,21.4,8.4,30.8c3.4-0.4,7-0.9,10.7-1.6c-3.2-9.4-5.8-19.8-7.7-31
					C107.9,200,104.1,200.6,100.5,201z"/>
				<path class="st7" d="M110.2,126.7c0.2-1.6,0.4-3.2,0.6-4.7c-4.6,3.4-9,7-13.2,10.5c-0.2,1.7-0.3,3.3-0.4,5
					C101.2,133.8,105.5,130.2,110.2,126.7z"/>
			</g>
			<g id="Shadow_00000174587287513033788080000018286792767023820692_">
				<path class="st7" d="M219,140.1c0.4,5.6,0.6,11.4,0.6,17.2c0,9-0.5,17.8-1.3,26.2c0.5-0.4,1.1-0.8,1.6-1.3
					c0.9-8.3,1.3-17,1.3-25.8c0-6.1-0.2-12.1-0.6-17.9C220.1,139.1,219.5,139.6,219,140.1z"/>
				<path class="st7" d="M209,81.6c-0.4-1.1-0.9-2.3-1.3-3.4c-0.5,0.1-0.9,0.2-1.4,0.2c0.4,1.1,0.9,2.2,1.3,3.3
					C208,81.7,208.5,81.7,209,81.6z"/>
			</g>
			
				<linearGradient id="SVGID_00000113312410054241874120000013201707944983358647_" gradientUnits="userSpaceOnUse" x1="193.6876" y1="44.0896" x2="132.9037" y2="274.4283" gradientTransform="matrix(1 0 0 -1 0 313.8898)">
				<stop  offset="9.016052e-02" style="stop-color:#CB296B"/>
				<stop  offset="0.5459" style="stop-color:#ED3A85"/>
				<stop  offset="1" style="stop-color:#F185B5"/>
			</linearGradient>
			<path style="fill:url(#SVGID_00000113312410054241874120000013201707944983358647_);" d="M164,35.8c-30.7,0-55.6,54.4-55.6,121.5
				s24.9,121.5,55.6,121.5s55.6-54.4,55.6-121.5S194.7,35.8,164,35.8z M178.8,258.5c-20.6,0-37.4-45-37.4-100.4
				c0-55.5,16.7-100.4,37.4-100.4c20.6,0,37.4,45,37.4,100.4C216.2,213.6,199.5,258.5,178.8,258.5z"/>
		</g>
	</g>
</g>
</svg>
