<?xml version="1.0" encoding="utf-8"?>
<!-- Generator: Adobe Illustrator 24.0.3, SVG Export Plug-In . SVG Version: 6.00 Build 0)  -->
<svg version="1.1" id="Layer_1" xmlns="http://www.w3.org/2000/svg" xmlns:xlink="http://www.w3.org/1999/xlink" x="0px" y="0px"
	 viewBox="0 0 421.73 421.73" style="enable-background:new 0 0 421.73 421.73;" xml:space="preserve">
<style type="text/css">
	.st0{opacity:0.66;}
	.st1{fill-rule:evenodd;clip-rule:evenodd;fill:#FFFFFF;}
	.st2{opacity:0.33;}
</style>
<g class="st0">
	<path class="st1" d="M67.94,281.47c-12.81-22.19,16.69-64.29,68.72-102.9c0.23-3.14,0.5-6.24,0.8-9.32
		C73.06,215.74,37.05,270.6,54.64,301.05c12.45,21.57,48.94,25.98,94.9,15.17c-2.44-8.2-4.6-16.91-6.45-26.05
		C105.79,299.55,77.09,297.31,67.94,281.47z"/>
	<path class="st1" d="M368.29,119.97c-12.64-21.89-50.03-26.12-96.96-14.69c0.66,2.23,1.3,4.51,1.92,6.82
		c35.48-8.31,62.59-5.71,71.43,9.6c12.03,20.83-13.24,59.2-59.43,95.76c-0.19,12.33-0.89,24.35-2.05,35.93
		C349.04,206.57,386.09,150.78,368.29,119.97z"/>
</g>
<g class="st2">
	<path class="st1" d="M67.29,138.7c9.21-15.95,38.28-18.11,75.99-8.48c1.88-9.15,4.07-17.86,6.54-26.05
		c-46.4-11.09-83.29-6.76-95.83,14.96c-17.64,30.55,18.63,85.65,83.4,132.22c-0.29-3.07-0.55-6.17-0.77-9.3
		C84.21,203.31,54.43,160.97,67.29,138.7z"/>
	<path class="st1" d="M283.14,167.19c1.18,11.61,1.9,23.65,2.11,36.02c45.78,36.41,70.75,74.53,58.78,95.26
		c-8.76,15.18-35.49,17.86-70.52,9.81c-0.61,2.31-1.25,4.59-1.91,6.83c46.5,11.15,83.48,6.84,96.04-14.91
		C385.38,269.49,348.6,213.93,283.14,167.19z"/>
</g>
<path class="st1" d="M210.41,391.74c-41.38,0-74.91-81.08-74.91-181.09s33.54-181.09,74.91-181.09c41.37,0,74.91,81.08,74.91,181.09
	S251.77,391.74,210.41,391.74L210.41,391.74z M220.71,370.42c-31.75,0-57.48-71.53-57.48-159.77c0-88.24,25.73-159.78,57.48-159.78
	c31.74,0,57.48,71.53,57.48,159.78C278.19,298.89,252.46,370.42,220.71,370.42L220.71,370.42z"/>
</svg>
