<?xml version="1.0" encoding="utf-8"?>
<!-- Generator: Adobe Illustrator 24.0.3, SVG Export Plug-In . SVG Version: 6.00 Build 0)  -->
<svg version="1.1" id="Layer_1" xmlns="http://www.w3.org/2000/svg" xmlns:xlink="http://www.w3.org/1999/xlink" x="0px" y="0px"
	 viewBox="0 0 1389.43 495.29" style="enable-background:new 0 0 1389.43 495.29;" xml:space="preserve">
<style type="text/css">
	.st0{fill:#EA357A;}
	.st1{opacity:0.66;}
	.st2{fill-rule:evenodd;clip-rule:evenodd;fill:#FFFFFF;}
	.st3{opacity:0.33;}
	.st4{fill:#0C3A5C;}
	.st5{font-family:'MavenPro-ExtraBold';}
	.st6{font-size:280px;}
	.st7{letter-spacing:-10;}
</style>
<circle class="st0" cx="271.5" cy="243.38" r="137.37"/>
<g class="st1">
	<path class="st2" d="M178.39,289.38c-8.35-14.46,10.87-41.88,44.77-67.03c0.15-2.04,0.33-4.07,0.52-6.07
		c-41.96,30.28-65.41,66.02-53.96,85.86c8.11,14.05,31.88,16.92,61.82,9.88c-1.59-5.34-3-11.02-4.2-16.97
		C203.04,301.16,184.35,299.7,178.39,289.38z"/>
	<path class="st2" d="M374.05,184.17c-8.23-14.26-32.59-17.01-63.16-9.57c0.43,1.46,0.85,2.94,1.25,4.44
		c23.11-5.41,40.78-3.72,46.53,6.26c7.83,13.57-8.63,38.57-38.71,62.39c-0.12,8.03-0.58,15.86-1.33,23.41
		C361.51,240.59,385.64,204.24,374.05,184.17z"/>
</g>
<g class="st3">
	<path class="st2" d="M177.96,196.37c6-10.39,24.94-11.8,49.5-5.53c1.22-5.96,2.65-11.63,4.26-16.97
		c-30.23-7.22-54.26-4.4-62.43,9.74c-11.49,19.9,12.14,55.8,54.33,86.14c-0.19-2-0.36-4.02-0.5-6.06
		C188.99,238.46,169.59,210.88,177.96,196.37z"/>
	<path class="st2" d="M318.58,214.93c0.77,7.56,1.24,15.41,1.37,23.47c29.82,23.72,46.09,48.55,38.29,62.06
		c-5.71,9.89-23.12,11.64-45.94,6.39c-0.4,1.51-0.81,2.99-1.24,4.45c30.29,7.26,54.38,4.46,62.57-9.71
		C385.19,281.57,361.22,245.38,318.58,214.93z"/>
</g>
<path class="st2" d="M271.2,361.22c-26.95,0-48.8-52.82-48.8-117.97s21.85-117.97,48.8-117.97c26.95,0,48.8,52.82,48.8,117.97
	S298.15,361.22,271.2,361.22L271.2,361.22z M277.91,347.33c-20.68,0-37.45-46.6-37.45-104.08c0-57.49,16.76-104.09,37.45-104.09
	c20.68,0,37.45,46.6,37.45,104.09C315.36,300.73,298.59,347.33,277.91,347.33L277.91,347.33z"/>
<text transform="matrix(1 0 0 1 457.512 331.8491)" class="st4 st5 st6 st7">DePay</text>
</svg>
