<?xml version="1.0" encoding="utf-8"?>
<!-- Generator: Adobe Illustrator 27.2.0, SVG Export Plug-In . SVG Version: 6.00 Build 0)  -->
<svg version="1.1" id="Layer_1" xmlns="http://www.w3.org/2000/svg" xmlns:xlink="http://www.w3.org/1999/xlink" x="0px" y="0px"
	 viewBox="0 0 55.8 40" style="enable-background:new 0 0 55.8 40;" xml:space="preserve">
<style type="text/css">
	.st0{fill:#7FE6DB;}
	.st1{fill-rule:evenodd;clip-rule:evenodd;fill:#475459;}
	.st2{fill:#475459;}
	.st3{fill:#FFDD0F;}
</style>
<g>
	<path class="st0" d="M23.2,17.3c-0.6-0.2-1.3-0.1-1.8,0.2L1.1,29.2l0,0c-1,0.6-1.4,1.9-0.8,2.9c0.7,1.4,3.1,2.7,5.9,3.2
		c1,0.2,2.1,0.3,3.2,0.3c2.8,0,5.6-0.7,8.2-1.9c2.4-1.1,4.7-3.6,6.1-6.6c1.5-3.2,1.8-6.3,0.8-8.7C24.3,18,23.8,17.5,23.2,17.3z"/>
	<path class="st0" d="M54.7,29.3L54.7,29.3L34.4,17.5c-0.6-0.3-1.2-0.4-1.8-0.2c-0.6,0.2-1.1,0.6-1.3,1.2c-1,2.4-0.7,5.6,0.8,8.7
		c1.4,3,3.7,5.4,6.1,6.6c2.6,1.2,5.4,1.9,8.2,1.9c1.1,0,2.1-0.1,3.2-0.3c2.9-0.6,5.3-1.9,5.9-3.2C56.1,31.1,55.7,29.9,54.7,29.3z"/>
	<path class="st1" d="M19.6,1c0-0.5,0.4-1,1-1c3.5,0,6.3,2.8,6.3,6.3c0,0.5-0.4,1-1,1c-0.5,0-1-0.4-1-1l0,0c0-2.4-2-4.4-4.4-4.4l0,0
		C20,1.9,19.6,1.5,19.6,1z"/>
	<path class="st1" d="M35.3,1.9c-2.4,0-4.4,2-4.4,4.4l0,0c0,0.5-0.4,1-1,1c-0.5,0-1-0.4-1-1C29,2.8,31.8,0,35.3,0c0.5,0,1,0.4,1,1
		S35.9,1.9,35.3,1.9L35.3,1.9z"/>
	<path class="st2" d="M37.5,34h-21l9.5,5.5c1.2,0.7,2.6,0.7,3.8,0l9.5-5.5H37.5z"/>
	<path class="st2" d="M40.4,21.9h-26v6.3h27v-6.3C41.4,21.9,40.4,21.9,40.4,21.9z"/>
	<path class="st3" d="M39.5,16.1L39.3,16H16.5l-0.2,0.1c-1.2,0.7-1.9,1.9-1.9,3.2v2.5h27v-2.5C41.4,18.1,40.6,16.8,39.5,16.1z"/>
	<path class="st3" d="M40.4,28.2h-26v2.5c0,1.3,0.7,2.6,1.9,3.2l0.2,0.1h22.8l0.2-0.1c1.2-0.7,1.9-1.9,1.9-3.2v-2.5H40.4z"/>
	<path class="st2" d="M29.8,10.5c-1.2-0.7-2.6-0.7-3.7,0L16.5,16h22.7L29.8,10.5z"/>
</g>
</svg>
