<?xml version="1.0" encoding="utf-8"?>
<!-- Generator: Adobe Illustrator 27.2.0, SVG Export Plug-In . SVG Version: 6.00 Build 0)  -->
<svg version="1.1" id="Layer_1" xmlns="http://www.w3.org/2000/svg" xmlns:xlink="http://www.w3.org/1999/xlink" x="0px" y="0px"
	 viewBox="0 0 439 439" style="enable-background:new 0 0 439 439;" xml:space="preserve">
<style type="text/css">
	.st0{fill:#FFD15C;}
	.st1{fill:#FFFFFF;stroke:#000000;stroke-width:17.6755;}
	.st2{fill:none;stroke:#000000;stroke-width:0.993;}
	.st3{fill:#FFFFFF;}
</style>
<path class="st0" d="M439,219.5C439,340.7,340.7,439,219.5,439C98.3,439,0,340.7,0,219.5C0,98.3,98.3,0,219.5,0
	C340.7,0,439,98.3,439,219.5z"/>
<path class="st1" d="M113.2,309.4c1.9-1.3,3.7-3.2,4.5-5.9c1-3,0.4-5.7-0.1-7.2c0,0,0-0.1,0-0.1l0.4-2.1c1,0.6,2.2,1.3,3.5,2.3
	c0.3,0.2,0.8,0.5,1.2,0.9c0.6,0.4,1.3,0.9,1.7,1.2c0.7,0.5,1.8,1.2,2.9,1.8c29.3,18.2,53.5,25.7,72.7,24.8c19.9-1,33.8-11,41-25.6
	c6.9-14.1,7.2-31.6,2.3-47.8c-4.9-16.3-15.2-32.1-30.6-43.1c-25.9-18.5-49.6-46.6-61.6-70.4c-6.1-12.1-8.5-21.9-7.9-28.3
	c0.3-3,1.2-4.8,2.3-5.9c1.1-1.2,3.1-2.4,6.9-3.1c8.1-1.3,17.5-4.3,27-7.2c3.7-1.2,7.4-2.3,11.1-3.4c13.7-4,28.2-7.4,43.5-7.3
	c29.6,0.1,64.3,12.9,100.9,66.3c47,68.7,21.2,145.4-32.9,185.7c-27,20.1-60.7,30.8-95.3,26.7C175.5,357.9,142.9,342.2,113.2,309.4z
	 M118.6,291.7C118.6,291.7,118.6,291.7,118.6,291.7C118.6,291.7,118.6,291.7,118.6,291.7z M115.7,293C115.7,293,115.7,293,115.7,293
	C115.7,293,115.7,293,115.7,293z"/>
<path d="M140.1,104.3c0,0,83.9-22.3,102.3-22.3s91.8,35.6,113.2,100.8c30.4,92.3-52.2,152.9-61.6,147
	c88.9-73.5-56.6-209.3-128.1-199.1c-8.9,1.3-4,8.9-4,8.9l-2,19.9L145,134.6L140.1,104.3z"/>
<path d="M343.3,155c26.5,46.6,21,19.9,15.1,73.3c10.9-17.6,27.9-4.4,34.9,2.3c1.3,1.2,3.3,0.5,3.3-1.3c-0.3-7.9-2.5-25-15.6-43.3
	C363.1,160.8,343.3,155,343.3,155z"/>
<path class="st2" d="M358.4,228.2c5.9-53.3,11.4-26.6-15.1-73.3c0,0,19.7,5.8,37.7,30.9c13.1,18.3,15.4,35.4,15.6,43.3
	c0.1,1.7-2,2.5-3.3,1.3C386.3,223.8,369.3,210.6,358.4,228.2z M358.4,228.2c1-2.5,2.6-6.4,2.6-6.4"/>
<path d="M130.1,221.1C119,240,96,238.6,96.5,261.2c20.5,45.5,20.6,42.3,20.6,42.3c38-21.3,22.4-68.4,16.7-82.2
	C133.2,219.6,131,219.6,130.1,221.1z"/>
<path d="M44.1,263c21.8,2.8,34.8-16.1,52.3-1.9c23.3,44.2,20.6,42.3,20.6,42.3c-40.2,16.8-67.7-24.5-75.1-37.5
	C41.1,264.4,42.4,262.7,44.1,263z"/>
<path d="M227,234.9c0,0,21.8,22.3,10.4,25.8c-14.2-8.8-39.8-2-52.3,2.3c-3.1,1-6.1-1.7-5-4.7c4.3-11.7,14.8-33.4,34.9-36.2
	C227,219,227,234.9,227,234.9z"/>
<path class="st3" d="M240.4,125.6c-2.5-3.5-7.4-12.9,7.9-12.9c15.4,0,38.9,17.4,43.7,23.9c-1.5,3.9-11.4,4.8-16.4,4.4
	s-13.4-1.2-19.9-4.4C249.3,133.4,242.8,129.1,240.4,125.6z"/>
</svg>
