<svg id="Layer_1" data-name="Layer 1" xmlns="http://www.w3.org/2000/svg" xmlns:xlink="http://www.w3.org/1999/xlink" viewBox="0 0 702.45 702.47"><defs><clipPath id="clip-path" transform="translate(-23.78 -23.77)"><rect width="750" height="750" fill="none"/></clipPath></defs><g clip-path="url(#clip-path)"><path d="M354.74,24.37a351.27,351.27,0,0,1,363.74,277,354,354,0,0,1,1.23,141.26A351.76,351.76,0,0,1,510.12,699.3c-73.77,31-158.25,35.35-234.91,12.54A352,352,0,0,1,46.51,499.56c-28-73.45-30.16-156.38-6.24-231.25A350.88,350.88,0,0,1,354.74,24.37" transform="translate(-23.78 -23.77)" fill="#fff"/><path d="M158.81,349.58c1.39,6.41,2.23,12.92,3.61,19.35.85,3.93,2.13,3,4.15,1.28,3.87-3.25,7.59-6.69,11.94-9.31,1.23.24,1.86,1.22,2.53,2.1,11.39,14.87,26.53,24,44.37,28.94a147.23,147.23,0,0,0,25.17,4.67,42.68,42.68,0,0,1-6.61-9.95c-2.85-6.41-1.85-12.15,2.95-17.22,5.87-6.19,13.62-8.76,21.48-10.8,16.48-4.3,33.27-4.73,50.18-3.53A202.11,202.11,0,0,1,358.75,362c11,3.06,21.72,6.73,31.44,12.88,1.36,1.09,2.3,2.6,3.61,3.74,12.49,13.41,19.78,29.25,20.28,47.55.34,12.65-3.16,24.72-9.5,35.82-11.42,20-28.09,34.56-48,45.71A170.5,170.5,0,0,1,291,528.42c-41.24,4.47-79.45-4.47-114.59-26.36-29.21-18.19-51.65-43.08-70-71.92a339.57,339.57,0,0,1-22.52-42.75c-.81-1.8-1-3.81-1.82-5.29.52,1.75,1.49,3.73-.43,5.6-.58-7.45.08-14.9.47-22.31a287.13,287.13,0,0,1,9.48-60.54A292.91,292.91,0,0,1,266.06,109.09,287.2,287.2,0,0,1,346.59,89.9c43.57-4,85.79,1.73,127,16.34-6.27,11.89-42,43.72-69.8,62.15a94.11,94.11,0,0,0-5.44-23.51c-.14-2,1.66-2.65,2.78-3.61q8.67-7.46,17.43-14.77a17.14,17.14,0,0,0,1.69-1.49c.66-.71,1.77-1.3,1.54-2.4s-1.55-1.15-2.47-1.3a46.82,46.82,0,0,0-8.17-1c-3.81-.45-7.56-1.3-11.4-1.38-2.95-.18-5.85-.93-8.83-.69a28.22,28.22,0,0,1-4.5-.32c-2.5-.79-5.07-.44-7.61-.43-1.52,0-3-.11-4.56,0-4.35.25-8.73-.48-13.07.34a12.87,12.87,0,0,1-3.21.32c-1.26,0-2.51.06-3.77,0a12.35,12.35,0,0,0-4.87.47c-4.59.41-9.19.78-13.73,1.61-5.48,1.16-11.09,1.44-16.53,2.79-5,1.3-10.13,2-15,3.74-6.51,1.79-12.95,3.84-19.35,6-9.34,3.71-18.82,7.1-27.71,11.86a248.74,248.74,0,0,0-55.66,36.94A266.55,266.55,0,0,0,159.68,227a254.87,254.87,0,0,0-16.54,26.16c-3.17,5.9-6.22,11.85-9,18-2,4.71-4.42,9.27-6,14.18-2,4.9-3.64,9.92-5.22,15-1.88,5.06-3,10.35-4.45,15.53-.63,2-1,4.11-1.53,6.18-.63,2.49-1,5-1.47,7.55-.77,4.25-1.48,8.5-2.09,12.78a118.64,118.64,0,0,0-1.57,13.29c-.74,2.94-.2,6-.74,9-.82,3.69-.28,7.45-.52,11.16-.11,2.61-.16,5.23-.09,7.85,0,1.07-.49,2.57.64,3.09,1.29.6,2.23-.77,3.16-1.53,3.18-2.6,6.29-5.29,9.4-8,10.47-9,21.07-17.88,31.58-26.85.91-.77,1.9-2.79,3.52-.71" transform="translate(-23.78 -23.77)" fill="#4189c9"/><path d="M390.11,375.78c-12.37-7.35-25.89-11.63-39.77-14.92a197.25,197.25,0,0,0-55.68-5.1c-13.21.66-26.31,2.5-38.48,8.3a32.61,32.61,0,0,0-4.21,2.43c-9.85,6.6-11.35,15.4-4.23,24.91,1.48,2,3.12,3.81,5.1,6.22-6.39,0-12.05-1.19-17.69-2.31-15.12-3-29.32-8.24-41.5-18-5.86-4.68-11.22-9.93-15.14-16.45,1.6-2.61,4.28-3.83,6.78-5.27,4.82-2,9.19-4.91,14-7.09a207.55,207.55,0,0,1,67.4-18c9.32-.87,18.65-1.76,28-1.41A311.38,311.38,0,0,1,376,343.25c6.8,2.12,13.52,4.45,20.59,6.84,0-2-1.14-3.19-1.9-4.48A96.18,96.18,0,0,0,385,331.88c-1.33-1.56-3.18-2.93-3.14-5.33,3.73.85,7.46,1.68,11.18,2.56,1,.23,2.17.83,2.81,0,.85-1.08-.43-2-1-2.84-5.49-8.19-12.33-15.17-19.67-21.68,3.89-2.26,7.89-.42,11.68.06,38.87,5,74.29,18.81,105.18,43,40.9,32.09,67.33,73.54,78.47,124.51A180.54,180.54,0,0,1,573.87,524c-2.19,30.11-11.65,57.9-29.45,82.58-1.17,1.62-2.75,2.91-3.61,4.76-4,6-10,10.08-15.44,14.52-29.55,24-64,36.46-101.14,42.28a310.34,310.34,0,0,1-87.31,1.54,288.17,288.17,0,0,1-127.39-48.14c-9.27-6.29-18.36-12.85-26.51-20.62a.65.65,0,0,1,0-1c1.74-.69,2.84.57,4,1.43a189.08,189.08,0,0,0,65,31.56,228.46,228.46,0,0,0,23.87,4.75c1.82.66,3.75.35,5.62.66a7.55,7.55,0,0,1,1.13.23c18.24,2.16,36.37.89,54.36-2.28,39.54-7,74.66-23.55,104.75-50.15,20.5-18.12,36.68-39.53,45.24-65.95s7.35-52.1-4.67-77.48c-2.47,11.38-8.44,20.8-15.91,29.38a106.09,106.09,0,0,1-26.07,21.19c-1.14.66-2.4,1.91-3.71.9-1.13-.86-.45-2.37-.1-3.51a139.64,139.64,0,0,0,4.94-24.2c3.5-34.51-9.82-61.37-37.3-81.74a119.8,119.8,0,0,0-14.06-9" transform="translate(-23.78 -23.77)" fill="#262f71"/><path d="M276.08,638.41a151.16,151.16,0,0,1-29.86-6.1A198.53,198.53,0,0,1,194.35,608c-3.83-2.51-7.07-5.86-11.24-7.89-2.39-.34-3.39-2.68-5.3-3.7-40.38-35.9-68-80-83.83-131.48A280.54,280.54,0,0,1,81.63,387.7c.1-2,.2-3.93.36-7,2,4.36,3.48,7.82,5.05,11.26,14.53,31.86,33.13,60.93,58.74,85.12C173,502.82,204.68,520,242,526c43.71,7.11,84.61-.51,122.22-24.06,18.75-11.75,34.14-26.94,43-47.65,10.72-25.11,6.68-48.44-9.65-69.95-1.43-1.88-2.95-3.69-4.43-5.54,1.94-1.66,3,.26,4.07,1.18a83.22,83.22,0,0,1,22.6,29.9,88,88,0,0,1,7.85,35.19,79.75,79.75,0,0,1-8,35.87,5.39,5.39,0,0,0,3.24-1.17,98.34,98.34,0,0,0,14.65-10.35c1.42-1.23,2.67-3.08,5-2.8a165.3,165.3,0,0,1-6.09,27.75,131.74,131.74,0,0,0,17.27-11.48c4.33-3.38,7.83-7.62,12.08-11.06,1.81.77,1.81,2.56,2.23,4.08,6.92,25,1.91,48.28-10.42,70.3-15,26.7-37,46.57-62.62,62.65a213.33,213.33,0,0,1-67.27,27.55,142.2,142.2,0,0,1-45.67,2.69h0c-1.9-1-4.07.19-6-.72" transform="translate(-23.78 -23.77)" fill="#161f42"/><path d="M654.17,453.07a212,212,0,0,0-20.77-82.35A218.9,218.9,0,0,0,603,324c-10.9-12.91-23.42-23.93-36.56-34.38,1.23-1.21,2.76-1,4.24-.8a236.28,236.28,0,0,1,53.79,12.78A80.2,80.2,0,0,1,637,307.43a40.38,40.38,0,0,1,4.16,2.44c.34.19.53.69,1,.58a1.27,1.27,0,0,1-.21-1.37c-11.84-15.42-26.15-28.28-41.17-40.5a302,302,0,0,0-58.18-36.9,287.64,287.64,0,0,0-91.57-27.45c-2.83-.35-5.75,0-8.51-1-.24-1.89,1.35-2.52,2.45-3.44,18.67-15.55,33.69-34,44.28-55.94a157.1,157.1,0,0,0,8.14-20.53c.64-2,1-4.17,3-5.44a288.16,288.16,0,0,1,88.47,66,292.1,292.1,0,0,1,66.64,270c-.84.46-1-.26-1.34-.75" transform="translate(-23.78 -23.77)" fill="#4189c9"/><path d="M540.81,611.37c0-2.94,2.34-4.6,3.79-6.66,13.66-19.51,22-41.12,26.31-64.48,2.67-14.47,2.9-29.08,2-43.57-1.47-22.34-7.18-43.83-16.19-64.42a212.25,212.25,0,0,0-24.73-42.57,221.24,221.24,0,0,0-36.16-37.62A207.56,207.56,0,0,0,425.19,314a198.1,198.1,0,0,0-42.25-8.69c-2.59-.23-5.15-.85-7.78-.69-9.13-6.73-18.39-13.24-28.79-17.94,0-.33,0-.67.07-1,3.74,0,7.49.06,11.23,0,52.43-.94,100.75,11.91,143,43.84C544.4,362.59,571.74,406.32,582,460.3c8.73,46.05,2,89.54-23.56,129.44-5,7.85-10.53,15.41-17.61,21.63" transform="translate(-23.78 -23.77)" fill="#161f42"/><path d="M500.4,117.91c-5.25,16.05-11.84,31.47-21.27,45.59a172.78,172.78,0,0,1-34.42,37.73c-.76.63-1.45,1.35-2.17,2-4.58,2.33-8.35,5.85-12.59,8.68a267.68,267.68,0,0,1-49.39,25.53,8.09,8.09,0,0,1-1.29.32c-.76-1.12.14-1.53.6-2,9.82-9.35,15.91-20.92,20-33.66a5,5,0,0,1,3.17-3.65c30.51-12.08,54.86-32.15,74.8-57.9,1.81-2.34,3.58-4.71,5.82-7.66-6.17-.12-10.9,3-16.12,3.82-1,.06-2.27.88-2.5-1a215.27,215.27,0,0,0,41.84-75.65c.55-1.78,0-4.23,2.48-5.13a.44.44,0,0,1,.25.45c0,.18-.08.26-.13.26a230.49,230.49,0,0,1-8.35,58.56,36.88,36.88,0,0,0-.69,3.63" transform="translate(-23.78 -23.77)" fill="#161f42"/><path d="M381.82,326.54a120,120,0,0,1,16.06,22.4c.43.79,1.54,1.68.55,2.61-.75.7-1.62-.16-2.41-.46a349,349,0,0,0-62.56-17c-10.75-1.85-21.66-2.66-32.58-3.45a194.09,194.09,0,0,0-29.45.42c-22.42,1.8-44.24,6.59-65,15.56-6.4,2.77-12.94,5.25-18.89,9-.68.43-1.49,1.13-2.27.06a199.59,199.59,0,0,1,59.2-28.41c29.15-8.7,58.93-10.84,89.15-8.46a328.42,328.42,0,0,1,45.74,6.95,21.92,21.92,0,0,1,2.44.83" transform="translate(-23.78 -23.77)" fill="#161f42"/><path d="M374.32,116.38h4.5c2.42,1,5.07-.28,7.5.74h4.49c.38,2.17-1.41,3.08-2.65,4.13-20.78,17.56-41.41,35.29-62.2,52.83-6.87,5.79-13.68,11.65-20.54,17.45a6.14,6.14,0,0,0-2.35,2.83c-9,3.37-17.36,7.6-24,14.94-3.13,3.48-5.18,7.5-7.44,11.46-6.17,4-11.36,9.26-17,14-14.77,12.42-29.35,25.06-44.16,37.43-1.25,1-2.07,2.5-3.52,3.31-2.55-3.8-2-8-1.39-12.12,1.86-3.06,4.8-5,7.44-7.28q21.54-18.27,43-36.59c14-11.85,27.92-23.77,41.9-35.63q24.12-20.45,48.17-41c8.93-7.6,17.8-15.26,26.86-22.71,1.37-1.13,2.33-2,1.28-3.81" transform="translate(-23.78 -23.77)" fill="#5c94ce"/><path d="M637.51,308.41c-17.63-8.56-36.27-13.78-55.54-16.9-5.15-.84-10.3-1.87-15.55-1.91-6.72-4.25-13.31-8.73-20.19-12.7a209.73,209.73,0,0,0-72.18-25.75,9.09,9.09,0,0,1-1.65-.64c7.65-1.4,33.69,2.51,51.72,7.47a243.07,243.07,0,0,1,48.47,19c-1.62-4.85-4.58-8.13-6.39-12-.18-1-1.63-1.94-.66-3s2.07.08,3,.49c2.6,1.18,5.08,2.61,7.69,3.77a347.52,347.52,0,0,1,61.4,40.49c1.06,1.4,1.06,1.4-.11,1.69" transform="translate(-23.78 -23.77)" fill="#161f42"/><path d="M374.32,116.38c.46,1.1,1.92.3,2.61,1.53-4.18,3.62-8.36,7.3-12.61,10.91q-11.51,9.78-23.07,19.48Q324.87,162.13,308.5,176c-7.58,6.44-15.05,13-22.63,19.46-9.18,7.8-18.45,15.51-27.65,23.3-7.3,6.19-14.53,12.47-21.82,18.68-7.67,6.52-15.37,13-23.06,19.49l-7.71,6.47,2.19-9.76c-1.24-3.19,1.35-4.63,3.13-6.1,7-5.84,13.88-11.81,20.83-17.71q24.25-20.58,48.49-41.22,20.84-17.7,41.66-35.39c12.92-11,25.93-21.91,38.72-33.07,1-.86,2.85-1.87.15-3,4.43-1.61,9-.33,13.52-.73" transform="translate(-23.78 -23.77)" fill="#6497d0"/><path d="M360.8,117.11c1.05.19,2.2-.37,3.3.49-2.65,3.9-6.55,6.45-10,9.44-9.82,8.56-19.79,17-29.74,25.37-9.1,7.68-18.29,15.26-27.37,23s-18.23,15.74-27.4,23.54-18.29,15.27-27.36,23S224,237.58,214.87,245.45c-2.74,2.37-6.37,4-7.05,8.15-4.84.55-7.4,4.64-10.94,7.16-5.59,4-9.84,9.47-15,13.95-5.19,3.69-9.77,8.1-14.61,12.2-14.38,12.19-28.7,24.46-43.13,36.59-2,1.68-3.77,3.66-6,5.06-1,.62-1.91,1.79-3.32.81a16.9,16.9,0,0,1,1.51-7.51c7.19-4.59,13.17-10.67,19.66-16.1,17.88-15,35.61-30.16,53.38-45.29s35.3-30.13,53-45.15q26-22,51.94-44.08c17.68-15,35.44-30,53-45.15,3.49-3,7.16-5.83,10.56-9h3" transform="translate(-23.78 -23.77)" fill="#689ad1"/><path d="M399.81,117.87c4.07-.05,8,1,12,1.5,1.09,2.39-1,3.32-2.23,4.43-5,4.37-10.23,8.48-15.1,13-.52-.69-1.08-1.36-1.56-2.09-1.11-1.65-1.89-1.21-2.61.33-5.9,12.66-16.05,21.46-27.1,29.3a202.14,202.14,0,0,1-39.87,21.79c-.76-1.44-.83-1.5.47-2.84,2.69-2.78,5.77-5.14,8.72-7.64,21.29-18.1,42.64-36.12,63.81-54.37,1.23-1.07,2.29-2.3,3.47-3.41" transform="translate(-23.78 -23.77)" fill="#4e8fcc"/><path d="M399.81,117.87a4.55,4.55,0,0,1-1.75,3.14q-20.6,17.43-41.13,34.93-15.72,13.4-31.36,26.89c-.94.82-2.71,1.4-2.23,3.3a187.4,187.4,0,0,1-20.27,8.24c-2.33-.64-.4-1.47,0-1.85,4.09-3.62,8.23-7.18,12.39-10.72q11.47-9.75,23-19.47c7.57-6.4,15.18-12.77,22.73-19.19s15.12-12.87,22.57-19.42c2.41-2.12,5.36-3.68,7-6.59,3.06-.44,6,.6,9,.74" transform="translate(-23.78 -23.77)" fill="#5591cd"/><path d="M346.61,208c7.92-3.92,16.19-7.21,23.1-12.93,1.44-.06,1.28.76.94,1.69-6.38,26.42-26.42,43.77-53.52,46.3-5.22.49-10.43,1.09-15.69.59.68-1.93,2.51-1.76,4-2.17,5.88-1.6,11.71-3.31,17.16-6.13,10.22-5.28,17.71-13.07,22-23.84a8.22,8.22,0,0,1,2.05-3.51" transform="translate(-23.78 -23.77)" fill="#161f42"/><path d="M346.61,208c-3.26,12.6-11.29,21.31-22.39,27.55-7.13,4-15,5.86-22.77,8.1-1.91-5.59.16-10.32,3.52-14.57,3.94-5,9.3-8.08,15-10.69A277.08,277.08,0,0,1,346.61,208" transform="translate(-23.78 -23.77)" fill="#418ac9"/><path d="M114.8,329.37c4.45-1.65,7.31-5.41,10.81-8.28,11.29-9.27,22.38-18.78,33.51-28.24,5.85-5,11.61-10.05,17.41-15.08,1.58-1.37,3.05-2.94,5.34-3.06-6,7.52-11.73,15.24-16,23.93q-17.25,14.6-34.44,29.27c-5.3,4.53-10.71,8.94-15.93,13.57-.8.71-1.7,1.6-2.94.64a54.13,54.13,0,0,1,2.24-12.75" transform="translate(-23.78 -23.77)" fill="#6497d0"/><path d="M158.81,349.58c-3.54.27-5.14,3.44-7.48,5.33-9.85,7.95-19.45,16.22-29,24.49-3.2,2.76-6.3,5.62-9.69,8.16-2.23,1.68-3.07,1-3-1.58,0-3.12,0-6.24,0-9.36,3.46-3.75,7.61-6.72,11.48-10,11.17-9.48,22.23-19.1,33.55-28.42,1-.8,1.79-2.26,3.46-1.31l.75,12.69" transform="translate(-23.78 -23.77)" fill="#468cca"/><path d="M207,275.48a4.17,4.17,0,0,1,1.91-3.08c9-7.6,18-15.15,27-22.76,7.39-6.25,14.72-12.56,22.07-18.87,3.86-3.31,7.69-6.66,11.52-10,.73-.64,1.41-1.12,2.12,0-.83,3.41-1.82,6.79-1.72,10.35-4,4.43-8.89,7.93-13.42,11.8-14,12-27.95,23.93-42,35.76a11.34,11.34,0,0,0-1.48,1.68,7.93,7.93,0,0,1-6-4.88" transform="translate(-23.78 -23.77)" fill="#5591cd"/><path d="M112.56,342.12c3.24-1,5.13-3.81,7.56-5.82,13.17-10.89,26.13-22,39.17-33.08,2.05-1.73,3.49-4.33,6.58-4.58a150.89,150.89,0,0,0-6,18c-2.34-.23-3.53,1.64-5,2.88-13.58,11.67-27.28,23.2-40.92,34.8-.82.69-1.55,1.71-2.89,1.26a44.88,44.88,0,0,1,1.5-13.5" transform="translate(-23.78 -23.77)" fill="#5c94ce"/><path d="M213,280.36c-.93-1.68.65-2.23,1.47-2.93q17.2-14.71,34.49-29.34,9.77-8.28,19.59-16.49a4.16,4.16,0,0,1,1.38-.47,29.92,29.92,0,0,0,1.38,9c-3.93,4.56-8.87,8-13.39,11.86q-15.13,13-30.45,25.93a3.5,3.5,0,0,0-1.54,2c-4.26,1.58-8.56,2.21-12.93.41" transform="translate(-23.78 -23.77)" fill="#4e8fcc"/><path d="M158.06,336.89c-4.21,2.41-7.57,5.91-11.27,9-9.76,8-19.37,16.25-28.94,24.5-2.64,2.28-5,4.82-8.28,6.27.39-4-.84-8.08.74-12q22.17-18.94,44.46-37.76c1-.86,2.06-1.91,3.64-1.23-.12,3.75-.23,7.5-.35,11.26" transform="translate(-23.78 -23.77)" fill="#4e8fcc"/><path d="M158.41,325.63c-4.75,2.55-8.42,6.5-12.52,9.88-9.68,7.95-19.14,16.16-28.73,24.22-2.14,1.81-3.64,4.56-6.85,4.89.38-3-.8-6.11.75-9q14-12,28.06-23.92c6.34-5.39,12.74-10.71,19.07-16.1,2-1.72,1.47.17,1.65,1.08Z" transform="translate(-23.78 -23.77)" fill="#5591cd"/><path d="M226,280c-1.38-1-.41-1.74.32-2.35,8.82-7.4,17.68-14.75,26.49-22.16,5.5-4.63,10.93-9.34,16.37-14a3.66,3.66,0,0,1,2.2-1.28l2.25,4.49c-1.73,2.67-4.5,4.33-6.45,6.79-10.83,12-22.95,22.14-38.29,27.91A19.53,19.53,0,0,1,226,280" transform="translate(-23.78 -23.77)" fill="#488dca"/><path d="M394.48,136.8c1.36-4.25,5.77-5.47,8.38-8.47,2.78-3.19,7.33-4.61,8.95-9,3.26,0,6.38.86,9.55,1.45,2.74.51,2.86,1.7,1,3.39-4.08,3.64-8.2,7.26-12.34,10.82-3.86,3.32-7.78,6.57-11.68,9.85Z" transform="translate(-23.78 -23.77)" fill="#468cca"/><path d="M209.37,307.81c.66,1.66-1.33,2.49-1.1,4-1-4.56-3.51-6.33-8.08-5.42a23.65,23.65,0,0,0-12.64,7.35c-.94,1-2,1.89-3,2.84-.82-1,0-1.87.33-2.76,2-6.51,6.39-11.14,11.93-14.83a12.57,12.57,0,0,1,4.06-1.85c6.42-1.53,9.94,1.61,9.06,8.12a8.28,8.28,0,0,1-.61,2.53" transform="translate(-23.78 -23.77)" fill="#428ac9"/><path d="M209.37,307.81c0-1,.06-2,.07-3,.11-6.54-3.6-9-9.67-6.25-7,3.2-11.42,8.92-14.49,15.79-.71.13-1.08-.07-.86-.86,2.21-8.16,6.47-14.92,13.56-19.73a14.82,14.82,0,0,1,5.85-2.28,6.25,6.25,0,0,1,7.41,4.61,14.88,14.88,0,0,1-1.87,11.7" transform="translate(-23.78 -23.77)" fill="#182144"/><path d="M267.13,251.41c-1.26-1-.15-1.4.52-1.87,2.11-1.47,3.27-4.1,5.93-4.92,3.4,5.38,8.83,7.75,14.49,9.77,1.14.41,2.33.67,4.19,1.19-8.72,2.27-16.24,1.39-23.15-3.33a3,3,0,0,0-2-.84" transform="translate(-23.78 -23.77)" fill="#458cca"/><path d="M576.22,266.23c-2.75-.32-4.84-2.2-7.34-3.13-1-.36-1.89-1.64-2.92-.8-.85.7.54,1.74.24,2.71-1.53-1.34-2.06-3.26-2.86-5.21,4.46,1.85,8.91,3.64,12.88,6.43" transform="translate(-23.78 -23.77)" fill="#63657d"/><path d="M637.51,308.41c.81-.51,0-1.13.11-1.69l4.35,2.36,2.34,3c-2.85-.76-4.78-2.31-6.8-3.67" transform="translate(-23.78 -23.77)" fill="#263154"/><path d="M465.19,249.26a14.26,14.26,0,0,1,6,.45c-2.32,1.26-3.92,1.09-6-.45" transform="translate(-23.78 -23.77)" fill="#a09aa9"/><path d="M177.81,596.36c2.33.42,3.39,2.67,5.3,3.7L183,601a14.22,14.22,0,0,1-5.21-4.59" transform="translate(-23.78 -23.77)" fill="#424a7f"/><path d="M654.17,453.07l1.34.75c.19,1.51-.45,2.75-1.34,4.6Z" transform="translate(-23.78 -23.77)" fill="#8cb7de"/><path d="M465,135.79c.51,1.15,1.66.68,2.5,1l-4,1.55c-.31-1.59.77-1.95,1.51-2.53" transform="translate(-23.78 -23.77)" fill="#5a5d76"/><path d="M184.42,313.51l.86.86c-.23.74-.45,1.49-.68,2.23L183,318.67c.48-2.42.51-3.9,1.43-5.16" transform="translate(-23.78 -23.77)" fill="#4f668a"/><path d="M370.65,196.73c-.22-.62-.13-1.4-.94-1.69.24-.58.89-1.39,1.19-1.1.9.87.52,1.91-.25,2.79" transform="translate(-23.78 -23.77)" fill="#555a73"/><path d="M117.8,315.86a61.44,61.44,0,0,1,4.5-15.77c8.82-6.15,16.58-13.6,24.79-20.5q21.35-18,42.53-36.14,19.35-16.55,38.79-33,21-17.8,42-35.66c12.74-10.83,25.52-21.63,38.21-32.53,8.9-7.65,18-15.07,26.74-22.88a53,53,0,0,1,14.24-1.52,1.44,1.44,0,0,1,1.54-.18c1.06,1.81-.29,2.84-1.39,3.76q-18.13,15.36-36.19,30.81Q294.28,168.63,275,185q-17.79,15.18-35.64,30.29Q217.7,233.67,196,252.1c-18,15.25-35.88,30.59-53.9,45.79-7,5.87-13.81,11.88-20.87,17.63-.88.71-2.07,3-3.47.34" transform="translate(-23.78 -23.77)" fill="#6d9cd2"/><path d="M335.31,119.38c-1.26,4.21-5.33,5.79-8.22,8.36-9.47,8.42-19.26,16.49-28.94,24.67-10.83,9.13-21.72,18.2-32.51,27.38-9.38,8-18.62,16.11-28,24.1-9.09,7.74-18.29,15.34-27.38,23.06s-18.11,15.55-27.21,23.28-18.25,15.37-27.35,23.09c-7.49,6.36-14.92,12.79-22.39,19.16-3,2.58-6.11,5.1-9.16,7.65-.66.55-1.26.82-1.86,0a60,60,0,0,1,5.25-15c6.9-4.35,12.67-10.1,18.86-15.32q21.33-18,42.51-36.13,21.92-18.75,43.92-37.39,18.1-15.42,36.25-30.79c15.73-13.3,31.33-26.76,47.13-40a6.94,6.94,0,0,0,2.58-3.13c5.31-2.06,11-1.93,16.51-3" transform="translate(-23.78 -23.77)" fill="#729fd4"/><path d="M318.8,122.36c2.33.61.43,1.46,0,1.85-4.25,3.82-8.54,7.61-12.89,11.31-7.57,6.43-15.2,12.79-22.79,19.2q-16.67,14-33.29,28.13c-9.09,7.73-18.08,15.56-27.16,23.29-9.36,8-18.79,15.85-28.16,23.82-9.08,7.73-18.09,15.54-27.17,23.27S149.1,268.61,140,276.29c-3.33,2.8-6.64,5.62-10,8.37-.66.54-1.37,1.76-2.44.44,1-5.16,3.72-9.61,6-14.24,12.33-10.54,24.72-21,37.06-31.56q19.08-16.29,38.21-32.52,18.25-15.53,36.53-31Q264.6,159.39,283.86,143c6.65-5.64,13.09-11.54,19.95-17,4.75-2.21,9.9-2.83,15-3.71" transform="translate(-23.78 -23.77)" fill="#78a2d5"/><path d="M303.81,126.07c-4.76,6.19-11.22,10.55-17,15.63-7.57,6.64-15.32,13.05-23,19.55-7.49,6.34-15,12.65-22.49,19S226.39,193,218.9,199.4s-15.21,12.8-22.79,19.23c-7.39,6.28-14.71,12.63-22.1,18.91q-14.06,12-28.17,23.85c-3.32,2.81-6.66,5.6-10,8.4a3.43,3.43,0,0,1-2.32,1.07,99.93,99.93,0,0,1,9-18c17.12-13.91,33.77-28.4,50.57-42.7,19.45-16.57,39-33,58.34-49.73,10.94-9.45,22.3-18.41,32.85-28.32a113.43,113.43,0,0,1,19.5-6" transform="translate(-23.78 -23.77)" fill="#7da5d6"/><path d="M284.31,132.11c.75,1.34-.6,1.74-1.18,2.26q-12.48,10.94-25.06,21.73c-7.35,6.31-14.77,12.54-22.16,18.8q-13.78,11.67-27.58,23.34c-7.47,6.35-14.9,12.76-22.38,19.11-9.37,8-18.78,15.87-28.15,23.82q-5.84,5-11.61,10a6.45,6.45,0,0,1-3.64,1.74,159.26,159.26,0,0,1,16.52-26.24c5.8-4.27,11.1-9.16,16.59-13.81q21.39-18.12,42.72-36.32,16.5-14.06,33-28.14c1.7-1.45,3.83-2.38,5.13-4.29,8.72-5.28,18.3-8.53,27.82-11.95" transform="translate(-23.78 -23.77)" fill="#81a7d8"/><path d="M442.55,466.64c-7.55,6.16-14.95,12.54-25,16.81a88.86,88.86,0,0,0,6.63-18.24c5.92-26,.43-49.66-14.87-71.24-3.78-5.32-8.86-9.44-13.36-14.09-.73-.75-1.52-1.69-2.83-1.06-1.35-.66-2-2-3-3,.65-.83,1.32-.37,2,0,18.13,10.28,33.24,23.62,42.47,42.69a85.23,85.23,0,0,1,8.18,30,86.86,86.86,0,0,1-.17,18.17" transform="translate(-23.78 -23.77)" fill="#0e1f66"/><path d="M117.8,315.86c3,1.08,4-1.91,5.54-3.14,15.21-12.59,30.21-25.44,45.23-38.26,14.17-12.1,28.25-24.31,42.45-36.38,15.81-13.43,31.74-26.7,47.55-40.13,14.2-12.07,28.28-24.27,42.44-36.38Q324,142,347,122.4c1.57-1.34,3.83-2,4.11-4.53.86-.82,2.13.08,3-.73l3.76,0c-1.15,4-5,5.39-7.7,7.81-7.76,7-15.85,13.59-23.82,20.33-9.11,7.7-18.26,15.36-27.36,23.08-7.39,6.27-14.72,12.62-22.12,18.9-10.9,9.24-21.85,18.42-32.74,27.67-7.4,6.28-14.72,12.64-22.1,18.92-9.38,8-18.8,15.88-28.18,23.85-7.39,6.28-14.71,12.64-22.1,18.92-7.57,6.44-15.21,12.81-22.78,19.25s-15.08,13-22.65,19.43c-2.64,2.25-5.38,4.4-8.08,6.6-.64.52-1.25.85-1.87,0a11.75,11.75,0,0,1,1.49-6" transform="translate(-23.78 -23.77)" fill="#699ad1"/><path d="M256.49,144.06c-.63,3.55-4.09,4.48-6.29,6.46-7.66,6.89-15.63,13.43-23.49,20.08-9.2,7.77-18.42,15.5-27.6,23.29-7.39,6.26-14.73,12.59-22.08,18.89q-8.06,6.9-16.1,13.83c-.63.54-1.24.87-1.86,0a141.72,141.72,0,0,1,13.14-17.11c17.65-20.5,37.7-38.3,60.73-52.6,7.6-4.71,15.14-9.6,23.55-12.85" transform="translate(-23.78 -23.77)" fill="#88abd9"/><path d="M386.32,117.12c-2.49-.33-5.13.77-7.5-.74,2.49.32,5.12-.78,7.5.74" transform="translate(-23.78 -23.77)" fill="#5591cd"/><path d="M354.05,117.14c-.79,1.07-2,.62-3,.73h-1.51c1.33-1.3,3-.52,4.5-.72" transform="translate(-23.78 -23.77)" fill="#689ad1"/><path d="M282.06,639.12a182.3,182.3,0,0,0,71.81-11.31,214,214,0,0,0,61.61-34.67c18.09-14.68,33.66-31.53,44.06-52.61a101.36,101.36,0,0,0,10.22-36c1-11.31-.88-22-3.95-32.64.34-2.61,2.72-3.8,4.11-5.63,5.38-7.07,9.35-14.69,11-23.46a27.43,27.43,0,0,1,1.21-3.43,111,111,0,0,1,8,21.16c2.63,10.31,4.11,20.8,3.33,31.4a123.31,123.31,0,0,1-16.06,52.32c-9.16,16.15-21,30-34.6,42.37a199.89,199.89,0,0,1-39.37,27.54,219.5,219.5,0,0,1-54.26,20.71,209.27,209.27,0,0,1-36.05,5.2c-5.85.33-11.71.83-17.52.46-4.51-.29-9.14,0-13.56-1.37" transform="translate(-23.78 -23.77)" fill="#0e1f66"/></g></svg>