<?xml version="1.0" encoding="utf-8"?>
<!-- Generator: Adobe Illustrator 27.2.0, SVG Export Plug-In . SVG Version: 6.00 Build 0)  -->
<svg version="1.1" id="Layer_1" xmlns="http://www.w3.org/2000/svg" xmlns:xlink="http://www.w3.org/1999/xlink" x="0px" y="0px"
	 viewBox="0 0 92 94" style="enable-background:new 0 0 92 94;" xml:space="preserve">
<style type="text/css">
	.st0{clip-path:url(#SVGID_00000152984455530468838840000013078990636272591786_);fill:#000020;}
	
		.st1{clip-path:url(#SVGID_00000152984455530468838840000013078990636272591786_);fill-rule:evenodd;clip-rule:evenodd;fill:#EBEEF2;}
	.st2{clip-path:url(#SVGID_00000152984455530468838840000013078990636272591786_);fill:#5766AF;}
	.st3{clip-path:url(#SVGID_00000152984455530468838840000013078990636272591786_);fill:#F593A0;}
	.st4{clip-path:url(#SVGID_00000152984455530468838840000013078990636272591786_);fill:#FCE62D;}
</style>
<g>
	<defs>
		<polyline id="SVGID_1_" points="-46,271 -46,-179 554,-179 554,271 		"/>
	</defs>
	<clipPath id="SVGID_00000181806461157014479170000010302978094549470139_">
		<use xlink:href="#SVGID_1_"  style="overflow:visible;"/>
	</clipPath>
	<path style="clip-path:url(#SVGID_00000181806461157014479170000010302978094549470139_);fill:#000020;" d="M2.6,46.8
		c0,24.3,19.7,43.9,43.9,43.9c24.3,0,43.9-19.7,43.9-43.9S70.8,2.9,46.5,2.9C22.3,2.9,2.6,22.6,2.6,46.8"/>
	
		<path style="clip-path:url(#SVGID_00000181806461157014479170000010302978094549470139_);fill-rule:evenodd;clip-rule:evenodd;fill:#EBEEF2;" d="
		M15.9,35.7c-0.5,3.4,0.1,7,0.7,10.4c0.3,0.5,0.8,0.9,1.5,1.1c-1.4,3-2.2,6.2-2.2,9.6c0,14.3,13.8,25.9,30.9,25.9
		c17.1,0,30.9-11.6,30.9-25.9c0-3.3-0.8-6.6-2.2-9.6c0.6-0.2,1-0.6,1.2-1.1c0.7-3.4,1.3-7,0.8-10.4c-0.5-4.6-2.1-6.1-6.9-4.9
		c-2.4,0.6-5.6,2-8.1,3.7c-4.6-2.3-10-3.6-15.7-3.6c-5.8,0-11.3,1.4-15.9,3.7c-2.5-1.7-5.7-3.2-8.2-3.8
		C17.9,29.6,16.4,31.1,15.9,35.7 M33.9,56.1C30.2,54.6,24,55,24,55s0.3,5.8,3.8,7.8c4.2,2.3,12.1,1.2,12.1,1.2S39.3,58.5,33.9,56.1
		L33.9,56.1z M54,64c0,0,7.8,1.2,12.1-1.2c3.6-2,3.8-7.8,3.8-7.8s-6.2-0.4-9.8,1.2C54.7,58.5,54,63.9,54,64L54,64z M45.3,68.1
		c0,0.4,0.8,0.8,1.8,0.8c1,0,1.8-0.3,1.8-0.8s-0.8-0.8-1.8-0.8C46.1,67.3,45.3,67.6,45.3,68.1"/>
	
		<path style="clip-path:url(#SVGID_00000181806461157014479170000010302978094549470139_);fill-rule:evenodd;clip-rule:evenodd;fill:#EBEEF2;" d="
		M82.1,64.5c-2.9-1.1-6-1.7-9.1-1.7c-0.8,0-0.8-1.2,0-1.2c3.2,0,6.4,0.6,9.4,1.8c0.3,0.1,0.5,0.4,0.4,0.7
		C82.7,64.4,82.4,64.6,82.1,64.5 M11.5,63.3c3-1.2,6.2-1.7,9.4-1.8c0.8,0,0.8,1.2,0,1.2c-3.1,0-6.2,0.6-9.1,1.7
		c-0.3,0.1-0.7-0.1-0.8-0.4C11,63.8,11.2,63.4,11.5,63.3 M17.7,66.8c1.5-0.5,3.1-0.7,4.6-0.8c0.8,0,0.8,1.2,0,1.2
		c-1.4,0-2.9,0.3-4.2,0.7c-1.3,0.4-2.7,0.9-3.7,1.8c-0.6,0.5-1.4-0.3-0.9-0.9C14.7,67.8,16.3,67.3,17.7,66.8 M23.7,69.1
		c-1.2,0.5-2.4,1.2-3.5,1.9c-1.1,0.7-2.1,1.6-2.9,2.6c-0.2,0.3-0.1,0.7,0.2,0.8c0.3,0.2,0.7,0.1,0.8-0.2c0.7-0.9,1.7-1.7,2.6-2.3
		c1.1-0.7,2.2-1.3,3.3-1.8c0.3-0.2,0.4-0.5,0.2-0.8C24.4,69,24,68.9,23.7,69.1L23.7,69.1z M71.5,67.3c1.4,0,2.9,0.3,4.2,0.7
		c0.7,0.2,1.4,0.5,2.1,0.8c0.6,0.2,1.1,0.6,1.6,1c0.6,0.5,1.4-0.3,0.9-0.9c-1.1-1-2.7-1.6-4.1-2c-1.5-0.5-3.1-0.7-4.6-0.8
		C70.8,66,70.8,67.3,71.5,67.3 M72.9,71.9c-1.1-0.7-2.2-1.2-3.3-1.7v0c-0.3-0.2-0.4-0.5-0.2-0.8c0.2-0.3,0.5-0.4,0.8-0.2
		c2.4,1,4.9,2.4,6.4,4.5c0.2,0.3,0.1,0.7-0.2,0.8c-0.3,0.2-0.7,0.1-0.8-0.2C74.9,73.3,73.9,72.5,72.9,71.9"/>
	<path style="clip-path:url(#SVGID_00000181806461157014479170000010302978094549470139_);fill:#5766AF;" d="M6.9,49.2
		c0.6-0.9,5.5-3.5,11.6-5.1c1.3-3.8,3-7.4,4.9-10.9c0,0,4.9-8.9,4.9-8.9c-1.4-0.6-2.8-1.4-4.1-2.3c-0.2-0.2-0.4-0.4-0.6-0.6
		c-0.1-0.2-0.2-0.5-0.2-0.7c0-0.2,0.3-0.6,0.4-0.7c0.3-0.4,0.7-0.7,1.1-1.1c0.9-0.8,1.9-1.5,3-2.1c0.5-0.3,1-0.6,1.5-1
		c3.5-2.2,5.4-3.9,8.7-5.8c3.1-1.8,4.6-2.8,8.1-2.7c4.5,0,15.6,14.2,20.6,21.5c3,4.4,7,12.3,8.6,15.3c0.3,0.1,0.7,0.2,1,0.3
		c4.6,1.4,9,3.4,10.1,4.7c1,1.1-3.3,1.6-7.5,2.4c-4.2,0.7-18.5,1.1-32.2,1.2c-13.7,0.1-29.7-0.4-33.2-0.9
		C10.1,51.3,6.2,50.3,6.9,49.2"/>
	<path style="clip-path:url(#SVGID_00000181806461157014479170000010302978094549470139_);fill:#F593A0;" d="M71.5,37
		c0,0-9-2.3-24.9-2.3c-17.1,0-25.3,2.6-25.3,2.6s-1,1.9-1.4,2.9c-0.4,1.1-1.4,3.9-1.4,3.9s12.4-2.2,28.3-2.2
		c9.6,0,19.1,0.8,28.6,2.4c0,0-1.4-3.4-2.3-4.8C72.6,38.7,72.1,37.8,71.5,37"/>
	<path style="clip-path:url(#SVGID_00000181806461157014479170000010302978094549470139_);fill:#FCE62D;" d="M17.8,17.9
		c1-0.1,2.4,3,2.4,3s3.2-0.9,3.8,0c0.5,0.9-2.3,3-2.3,3s1.7,3,1.1,3.6c-0.5,0.6-3.5-1.3-3.5-1.3s-2.3,2.6-3,2.2
		c-0.8-0.4,0.1-3.8,0.1-3.8s-3.3-1.4-3-2.2c0.2-0.8,3.6-1.1,3.6-1.1S16.8,18.1,17.8,17.9"/>
</g>
</svg>
