<svg id="Layer_1" data-name="Layer 1" xmlns="http://www.w3.org/2000/svg" viewBox="0 0 94.91 130.26"><g id="Layer_2" data-name="Layer 2"><path d="M117.28,96.45c0,24.62-21.24,44.6-47.45,44.6s-47.46-20-47.46-44.6c0-3.19,0-19.85,7.43-33.45,7.08-13,19.52-21.69,19.52-21.69s.17,3.81.66,7.82a24.1,24.1,0,0,0,1,4c.06-3.44,1.36-11.7,6.57-21.63,6-11.46,17-20.72,17-20.72a108.51,108.51,0,0,0,.3,16.91c.85,7.72,4.15,14.91,5.07,15.59a25.82,25.82,0,0,1,.86-4.85,17.34,17.34,0,0,1,2.57-4.65c.2-.8.42,6.15,2.87,10.44,5.7,10,20.14,23.1,23.51,28A42.44,42.44,0,0,1,117.28,96.45Z" transform="translate(-22.37 -10.79)" fill="#ca404f"/><path d="M73,135.59c-26.21,0-47.45-20-47.45-44.6,0-3.06,0-18.39,6.47-31.63-.76,1.16-1.48,2.35-2.15,3.6-7.47,13.64-7.47,30.3-7.47,33.49,0,24.62,21.24,44.6,47.46,44.6,19.28,0,35.87-10.8,43.3-26.31A48.25,48.25,0,0,1,73,135.59Z" transform="translate(-22.37 -10.79)" fill="#92384b"/><path d="M50,49.26a23.06,23.06,0,0,0,1,4C51,49.94,52.5,41.48,57.19,32.1c-.86,1.37-2,3.53-2.76,5A65,65,0,0,0,49.87,48C49.92,48.43,50,48.84,50,49.26Z" transform="translate(-22.37 -10.79)" fill="#92384b"/><path d="M78.44,82.6c-9.28,11.34-22.3,18.06-19.12,21.17,3.34,3.27,23.09,13.92,38.3-1.71,8-8.24,7.33-21.18,2.86-29.06,0,0,2.7-7.8,2.57-8.36-.47-1.9-10-12-11.33-12.62A87.23,87.23,0,0,1,89,64.71C87.7,68.55,83.92,75.89,78.44,82.6Z" transform="translate(-22.37 -10.79)" fill="#ecd0cf"/><path d="M83.79,87.13c-6,7.3-13.79,12.25-11.47,13.94s10.76,6,20.59-4c7.32-7.51,4.23-17.43,1.9-19.12S88.8,81,83.79,87.13Z" transform="translate(-22.37 -10.79)" fill="#dab2b5"/><path d="M86.13,91.35c-2.43,3.36-3.43,6.75-2.32,7.57s4-1.23,6.45-4.58,3.44-6.74,2.33-7.57S88.56,88,86.13,91.35Z" transform="translate(-22.37 -10.79)" fill="#c9949c"/><path d="M86.22,44.24a15.43,15.43,0,0,1-1-2.06A63.19,63.19,0,0,1,68.8,58.65C60.61,64.36,56,68.6,53.75,81,52.54,87.46,35,77.74,29.32,86c-2.41,3.52-2.25,7.09-3.58,9.31.43,10.18,7.44,20,7.44,20-1.19-1.72-.37-12,3.64-18.74,3.83-6.45,17.12-6.9,23.29-13.76C66.57,75.7,66.36,69.38,71,63.69c6.5-8,15-15.13,19.72-12.86A56.44,56.44,0,0,1,86.22,44.24Z" transform="translate(-22.37 -10.79)" fill="#f4eae6"/><path d="M117.28,96.45c-.43,3-3.68,9.31-7.88,10.29-7.67,1.77-10.79-3-15.67,2a29.82,29.82,0,0,1-29.66,7.11c-9.43-2.94-20.18,6.43-27,4.39,5.29,6.86,17.53,12,18.92,12.42-1-1.16-4.08-5.84-1.12-7.37,5.64-2.91,14,2.75,20.08,1.06,7.21-2,10.29-8,14.1-10.35,1.9-1.19,12-9.31,24.11-1.46A42.06,42.06,0,0,0,117.28,96.45Z" transform="translate(-22.37 -10.79)" fill="#f4eae6"/></g></svg>