<?xml version="1.0" encoding="utf-8"?>
<!-- Generator: Adobe Illustrator 26.0.1, SVG Export Plug-In . SVG Version: 6.00 Build 0)  -->
<svg version="1.1" id="katman_1" xmlns="http://www.w3.org/2000/svg" xmlns:xlink="http://www.w3.org/1999/xlink" x="0px" y="0px"
	 viewBox="0 0 508.2 508" style="enable-background:new 0 0 508.2 508;" xml:space="preserve">
<style type="text/css">
	.st0{fill:#8247E5;}
	.st1{clip-path:url(#SVGID_00000036947867304220553780000016742433963812210318_);}
	.st2{fill:#FFFFFF;}
</style>
<path class="st0" d="M254,0L254,0c140.4,0,254.2,113.8,254.2,254.2l0,0c0,140.4-113.8,254.1-254.1,254.1l0,0
	C113.7,508.3,0,394.5,0,254.2l0,0C-0.1,113.8,113.7,0,254,0z"/>
<g>
	<g>
		<defs>
			<rect id="SVGID_1_" x="85.7" y="109.9" width="333.1" height="291.9"/>
		</defs>
		<clipPath id="SVGID_00000106139103971923213300000002927755254691748030_">
			<use xlink:href="#SVGID_1_"  style="overflow:visible;"/>
		</clipPath>
		<g style="clip-path:url(#SVGID_00000106139103971923213300000002927755254691748030_);">
			<path class="st2" d="M337.3,198.8c-6.1-3.5-13.9-3.5-20.8,0l-48.6,28.8l-33,18.3l-47.7,28.7c-6.1,3.5-13.9,3.5-20.8,0l-37.3-22.7
				c-6.1-3.5-10.4-10.5-10.4-18.3V190c0-7,3.5-13.9,10.4-18.3l37.3-21.8c6.1-3.5,13.9-3.5,20.8,0l37.3,22.7
				c6.1,3.5,10.4,10.5,10.4,18.3v28.8l33-19.2v-29.6c0-7-3.5-13.9-10.4-18.3l-69.4-41c-6.1-3.5-13.9-3.5-20.8,0l-71.1,41.9
				c-6.9,3.5-10.4,10.5-10.4,17.4v81.9c0,7,3.5,13.9,10.4,18.3l70.3,41c6.1,3.5,13.9,3.5,20.8,0l47.7-27.9l33-19.2l47.7-27.9
				c6.1-3.5,13.9-3.5,20.8,0l37.3,21.8c6.1,3.5,10.4,10.5,10.4,18.3v43.6c0,7-3.5,13.9-10.4,18.3l-36.4,21.8
				c-6.1,3.5-13.9,3.5-20.8,0l-37.4-21.8c-6.1-3.5-10.4-10.5-10.4-18.3v-27.9l-33,19.2v28.8c0,7,3.5,13.9,10.4,18.3l70.3,41
				c6.1,3.5,13.9,3.5,20.8,0l70.3-41c6.1-3.5,10.4-10.5,10.4-18.3v-82.8c0-7-3.5-13.9-10.4-18.3L337.3,198.8z"/>
		</g>
	</g>
</g>
</svg>
