<?xml version="1.0" encoding="utf-8"?>
<!-- Generator: Adobe Illustrator 27.2.0, SVG Export Plug-In . SVG Version: 6.00 Build 0)  -->
<svg version="1.1" id="katman_1" xmlns="http://www.w3.org/2000/svg" xmlns:xlink="http://www.w3.org/1999/xlink" x="0px" y="0px"
	 viewBox="0 0 225.9 229.1" style="enable-background:new 0 0 225.9 229.1;" xml:space="preserve">
<style type="text/css">
	.st0{fill:#1E1E1C;}
</style>
<path class="st0" d="M217.8,74.2c-3-7.5-6.8-14.6-11.3-21.3c-20.3-30-54.7-49.7-93.6-49.7C50.5,3.2,0,53.8,0,116.1
	c0,62.4,50.6,113,112.9,113c39,0,73.3-19.7,93.6-49.7c4.5-6.6,8.2-13.7,11.3-21.2c5.2-13,8.1-27.2,8.1-42
	C225.8,101.4,223,87.2,217.8,74.2z M202.7,104.7H73.4c2-7,5.7-13.2,10.7-18.1c7.6-7.6,18.1-12.3,29.7-12.3h79.4
	C198.1,83.6,201.3,93.8,202.7,104.7z M112.3,25.1c25.7,0,49,10.7,65.6,27.9h-61.3c-17.5,0-33.3,7.1-44.7,18.5
	c-8.9,8.9-15.1,20.3-17.4,33.2H22C27.6,59.8,65.9,25.1,112.3,25.1z M112.3,207.4c-46.4,0-84.7-34.7-90.4-79.6h32.5
	c5.4,29.4,31.2,51.7,62.2,51.7h61.3C161.4,196.7,138.1,207.4,112.3,207.4z M113.8,158.3c-19.2,0-35.4-12.9-40.4-30.5h129.3
	c-1.4,10.9-4.7,21.1-9.5,30.5H113.8z"/>
</svg>
