<?xml version="1.0" encoding="utf-8"?>
<!-- Generator: Adobe Illustrator 26.0.1, SVG Export Plug-In . SVG Version: 6.00 Build 0)  -->
<svg version="1.1" id="Layer_1" xmlns="http://www.w3.org/2000/svg" xmlns:xlink="http://www.w3.org/1999/xlink" x="0px" y="0px"
	 viewBox="0 0 770 724" style="enable-background:new 0 0 770 724;" xml:space="preserve">
<style type="text/css">
	.st0{fill:#FFFFFF;}
	.st1{fill:#94A6C3;}
	.st2{fill:#1B314F;}
	.st3{fill:#FFD923;}
	.st4{fill:#D82122;}
</style>
<path class="st0" d="M191.5,401.2l19.2-145L43.5,140.1l152.8,51.7l36.1-55.3l131.7-81.8l290.6,160l15,244.2L540.4,638.8l-102.3,15.6
	l52.9-96.9v-93.2l-38.5-72.8l-39.1-25.9l-60.2,62v65.6l-46.9,43.9l-59.6,7.2l-26.5,15l-43.3-13.8l-18-65l32.5-45.7V401.2z"/>
<path class="st1" d="M458.6,138.9c-31.9-6.6-66.8-4.8-66.8-4.8s-11.4,52.9-82.4,66.8C310,200.9,403.2,232.8,458.6,138.9z"/>
<path class="st1" d="M487.5,619c38.5-30.1,67.4-71.6,80.6-118.5c0.6-1.8,6-4.8,9.6-7.2c6-3.6,12-6.6,13.2-11.4
	c2.4-13.8,3.6-28.3,3.6-42.7c0-5.4-5.4-10.8-10.8-16.2c-4.2-3.6-8.4-7.8-8.4-10.8c-6-54.7-31.3-105.9-71.6-143.2l-4.2,4.2
	c39.1,36.7,64.4,86.6,69.8,139.6c0.6,4.8,5.4,9.6,10.2,14.4c4.2,3.6,9,9,9,11.4c0,13.8-1.2,27.7-3.6,41.5c-0.6,2.4-6,4.8-10.2,7.2
	c-6,3-11.4,6-12.6,10.8c-14.4,51.1-47.5,95.6-91.4,124.5c7.8-16.8,32.5-71.6,45.7-99.3l-2.4-89l-76.4-74l-43.3,6l-47.5,77
	c0,0,22.3,28.3-9,61.4c-30.7,32.5-54.7,39.7-54.7,39.7l-22.3-12c6.6-8.4,19.9-21.1,30.1-29.5c17.4-14.4,34.9-15.6,34.9-31.3
	c0.6-32.5-34.3-23.5-34.3-23.5l-12.6,12l-5.4,44.5l-26.5,33.1l-3-0.6l-43.3-9.6c0,0,26.5-13.8,30.7-29.5c4.2-15-8.4-65-9-68
	c0.6,0.6,12.6,10.8,18,27.7c9.6-26.5,22.3-51.7,25.9-54.1c3.6-2.4,52.3-28.3,52.3-28.3l-16.2,42.7l12-6.6l28.9-71
	c0,0,28.3-13.8,49.3-13.8c37.9-0.6,93.8-46.9,68.6-129.9c7.2,3,132.3,65.6,154,188.3C631.2,479.4,577.7,567.8,487.5,619z"/>
<path class="st2" d="M344.3,152.2c13.8-16.2,8.4-40.3,8.4-40.3l-40.3,59.6C311.8,171.4,326.8,172,344.3,152.2z"/>
<path class="st2" d="M208.9,477.6l4.8-24.1c0,0-19.9,34.9-21.7,39.7c-1.8,5.4,1.2,15,9,14.4c7.8-0.6,17.4-12,17.4-20.5
	C218.6,476.4,208.9,477.6,208.9,477.6z"/>
<path class="st2" d="M566.3,95c0,0,30.1,1.2,61.4,4.8c-70.4-55.3-137.2-71.6-191.3-71.6c-74.6,0-125.1,30.7-128.1,32.5l23.5-37.3
	c0,0-93.8-9-126.9,90.2c-8.4-21.1-16.2-51.7-16.2-51.7s-48.7,42.7-25.9,113.7c-55.9-20.5-136-48.7-139-49.3
	c-4.2-0.6-5.4,1.2-5.4,1.2s-1.2,1.8,2.4,4.8c6.6,5.4,132.9,98.7,160.6,116.7c-6,21.7-6,31.9,0,42.1c8.4,13.8,9,21.1,7.8,31.3
	c-1.2,10.2-12,98.7-14.4,109.5c-2.4,10.8-27.7,49.3-26.5,60.8s16.8,60.2,30.7,65.6c10.2,3.6,35.5,11.4,52.3,11.4
	c6,0,11.4-1.2,13.8-3.6c10.2-9,13.2-10.8,20.5-10.8c0.6,0,1.2,0,1.8,0c3,0,6.6,0.6,10.8,0.6c9.6,0,22.3-1.8,31.3-10.2
	c13.2-13.2,36.1-31.3,43.3-39.7c9-11.4,13.8-27.1,11.4-42.7c-1.8-14.4,6-27.1,15-39.7c11.4-15,32.5-42.1,32.5-42.1
	c41.5,31.3,67.4,78.8,67.4,131.7c0,93.8-81.8,169.6-182.9,169.6c-15.6,0-30.7-1.8-45.7-5.4c46.3,16.2,85.4,21.7,117.3,21.7
	c68,0,104.1-24.7,104.1-24.7s-12.6,16.2-33.1,34.9c0.6,0,0.6,0,0.6,0c112.5-15.6,167.2-108.3,167.2-108.3s-4.2,30.1-9.6,50.5
	C746.7,539,721.5,398.2,720.9,393.4c1.2,1.8,16.2,19.9,24.1,29.5C769,175,566.3,95,566.3,95z M335.9,490.8c-2.4,3-12.6,12-19.9,18.6
	s-15,13.2-21.1,19.2c-2.4,2.4-7.2,3.6-14.4,3.6c-2.4,0-4.8,0-6.6,0c-1.2,0-2.4,0-3.6,0s-1.8,0-2.4,0c-1.8,0-3.6,0-5.4,0
	c9-12,35.5-39.7,44.5-45.7c10.8-7.2,16.2-14.4,9.6-27.1c-6.6-12.6-24.1-9.6-24.1-9.6s10.2-4.2,19.2-4.2c-11.4-3-25.9,0-32.5,6.6
	c-7.2,6.6-6,30.1-9,45.1c-3,15.6-13.2,23.5-28.9,37.9c-8.4,7.8-14.4,10.2-19.2,10.2c-10.2-1.8-22.3-4.8-30.7-7.8
	c-6-7.8-15-33.7-17.4-44.5c1.8-6,9-18.6,12.6-25.9c7.2-13.8,11.4-21.7,12.6-28.9c2.4-10.2,10.2-73.4,13.2-99.9
	c7.8,10.2,18.6,27.1,16.2,37.9c17.4-24.7,4.8-48.7-1.2-58.4c-5.4-9.6-12.6-28.9-6.6-49.3c6-20.5,27.7-77,27.7-77s7.2,12.6,17.4,10.2
	c10.2-2.4,92.6-126.3,92.6-126.3s22.3,48.7-1.2,84.2c-24.1,35.5-47.5,42.1-47.5,42.1s33.1,6,63.8-16.2
	c12.6,29.5,24.7,60.2,25.3,64.4c-1.8,4.2-25.9,62-28.3,65.6c-1.2,1.2-9.6,3.6-15.6,4.8c-10.2,3-16.2,4.8-18.6,6.6
	c-4.2,3.6-23.5,56.5-32.5,82.4c-10.8,3-21.7,9-29.5,21.1c4.2-3,17.4-4.8,27.1-6c8.4-0.6,34.3,13.2,40.9,39.1c0,0.6,0,0.6,0,1.2
	C343.7,474.6,340.7,483.6,335.9,490.8z M279.3,498.1c5.4-7.8,4.8-21.1,5.4-25.3c0.6-4.2,1.8-12,6.6-13.2c4.8-1.2,16.2,0.6,16.2,9
	c0,7.8-8.4,9.6-14.4,15C288.9,487.8,280.5,496.9,279.3,498.1z M519.3,383.2c6-30.7,6.6-57.1,4.8-78.8
	c23.5,31.3,37.9,69.2,42.1,108.3c0.6,4.8,5.4,9.6,10.2,14.4c4.2,3.6,9,8.4,9,11.4c0,13.8-1.2,27.7-3.6,41.5c-0.6,1.8-6,4.8-10.2,7.2
	c-6,3-11.4,6-12.6,10.8c-13.2,46.3-41.5,87.2-79.4,116.1C535.6,555.8,562.7,459.6,519.3,383.2z M481.4,619.6
	c39.1-30.1,69.2-72.2,82.4-119.7c0.6-1.8,6-4.8,9.6-7.2c6-3,12-6.6,13.2-11.4c2.4-13.8,3.6-28.3,3.6-42.7c0-5.4-5.4-10.8-10.8-16.2
	c-3-3.6-7.8-7.8-7.8-10.8c-4.8-43.9-22.3-85.4-49.3-119.7c-12-72.2-60.2-94.4-61.4-95c1.2,1.8,32.5,46.9,10.8,99.9
	c-22.3,53.5-79.4,45.1-84.2,45.7c-4.8,0-23.5,24.1-46.9,68.6c-3-1.2-15.6-4.2-30.1-1.8c10.8-30.1,27.1-72.8,30.1-76.4
	c1.2-1.2,10.2-3.6,16.2-5.4c11.4-3,16.8-4.8,18.6-7.2c1.2-1.8,7.2-15.6,13.2-30.1c5.4,0,19.2-1.2,20.5-1.8
	c1.2-1.2,12.6-30.7,12.6-34.3c0-3-23.5-61.4-32.5-83.6c4.2-4.8,8.4-10.8,12.6-17.4C525.4,166,621.6,270.7,621.6,397.6
	C621.6,495.1,564.5,579.9,481.4,619.6z"/>
<path class="st2" d="M321.4,294.7c11.4-13.2,5.4-37.9-15.6-42.1c5.4-12.6,13.2-37.9,13.2-37.9s-61.4,96.2-66.8,98.1
	c-5.4,1.8-10.8-19.2-10.8-19.2c-11.4,43.9,19.2,49.9,22.9,36.1C281.1,325.4,310,307.4,321.4,294.7z"/>
<path class="st3" d="M269.1,318.2l31.3-53.5c0,0,18,9,9,23.5C298,305,269.1,318.2,269.1,318.2z"/>
<path class="st4" d="M655.9,566c-9,12-19.2,24.7-31.3,36.7c77.6-149.2,3.6-285.7,0.6-291.2c5.4,5.4,10.8,11.4,15.6,16.8
	C700.4,394.6,707.6,493.9,655.9,566z"/>
<path class="st4" d="M728.1,374.1c-27.1-72.8-65.6-134.8-150.4-190.7c-81.8-54.1-169.6-49.9-174.5-49.3c-0.6,0-1.2,0-1.2,0
	c3-1.2,6-1.8,9-2.4c18.6-6,42.7-10.8,66.8-13.8c63.8-9,128.1,12.6,172,59c0.6,0.6,0.6,0.6,1.2,1.2C701,231,726.9,297.1,728.1,374.1z
	"/>
<path class="st4" d="M558.4,76.4c-89.6-16.8-147.4-8.4-188.9,7.2c-1.2-4.8-5.4-14.4-9-22.3c-12.6,15-25.9,33.1-34.3,44.5
	c-22.9,15.6-32.5,30.7-32.5,30.7c13.2-45.1,51.7-78.8,98.7-87.2c13.2-2.4,27.7-3.6,43.3-3.6C477.2,46.3,518.7,56.5,558.4,76.4z"/>
<path class="st4" d="M227,191.9c-70.4-2.4-46.9-84.2-45.7-89C181.3,103.4,186.1,167.2,227,191.9z"/>
<path class="st4" d="M296.2,44.5C242,77,252.8,154.6,252.8,154.6C201.1,75.8,292,46.3,296.2,44.5z"/>
<path class="st0" d="M207.1,213.5c3.6,3,7.2,8.4,3,16.2c-2.4,4.2-6,3.6-11.4,1.2c-7.2-3.6-50.5-28.9-89.6-54.7
	c44.5,15.6,89.6,32.5,96.9,36.1C205.9,212.3,206.5,212.9,207.1,213.5z"/>
</svg>
