<?xml version="1.0" encoding="utf-8"?>
<!-- Generator: Adobe Illustrator 27.2.0, SVG Export Plug-In . SVG Version: 6.00 Build 0)  -->
<svg version="1.1" id="Layer_1" xmlns="http://www.w3.org/2000/svg" xmlns:xlink="http://www.w3.org/1999/xlink" x="0px" y="0px"
	 viewBox="0 0 100 100" style="enable-background:new 0 0 100 100;" xml:space="preserve">
<style type="text/css">
	.st0{clip-path:url(#SVGID_00000106840864984535554340000000476233082770872971_);}
	.st1{fill-rule:evenodd;clip-rule:evenodd;fill:#E33E3F;}
</style>
<g>
	<defs>
		<rect id="SVGID_1_" x="23.8" y="10.4" width="52.4" height="76.2"/>
	</defs>
	<clipPath id="SVGID_00000178195531368417470900000014966980019516781970_">
		<use xlink:href="#SVGID_1_"  style="overflow:visible;"/>
	</clipPath>
	<g style="clip-path:url(#SVGID_00000178195531368417470900000014966980019516781970_);">
		<path class="st1" d="M55,16.4c2.8,0,5.4,0.4,7.8,1.1c-2.4-5.5-7.2-7.1-12.7-7.1c-5.5,0-10.4,1.6-12.7,7.1c2.4-0.7,5-1.1,7.7-1.1
			H55z M44.4,21.9c-13.2,0-20.7,10.4-20.7,23.1v13.1c0,1.3,1.1,2.3,2.4,2.3h47.6c1.3,0,2.4-1,2.4-2.3V45c0-12.8-8.7-23.1-21.9-23.1
			H44.4z M50,45.1c4.6,0,8.3-3.7,8.3-8.3s-3.7-8.3-8.3-8.3s-8.3,3.7-8.3,8.3S45.4,45.1,50,45.1z M23.8,68.1c0-1.3,1.1-2.3,2.4-2.3
			h47.6c1.3,0,2.4,1,2.4,2.3V82c0,2.6-2.1,4.6-4.8,4.6H28.6c-2.6,0-4.8-2.1-4.8-4.6V68.1z"/>
	</g>
</g>
</svg>
