<?xml version="1.0" encoding="utf-8"?>
<!-- Generator: Adobe Illustrator 27.2.0, SVG Export Plug-In . SVG Version: 6.00 Build 0)  -->
<svg version="1.1" id="Layer_1" xmlns="http://www.w3.org/2000/svg" xmlns:xlink="http://www.w3.org/1999/xlink" x="0px" y="0px"
	 viewBox="0 0 126.6 126.6" style="enable-background:new 0 0 126.6 126.6;" xml:space="preserve">
<style type="text/css">
	.st0{fill:#F3BA2F;}
</style>
<path d="M108.2,122H18.7c-6.6,0-12-5.4-12-12V20.4c0-6.6,5.4-12,12-12h89.6c6.6,0,12,5.4,12,12V110C120.2,116.6,114.8,122,108.2,122
	z"/>
<g>
	<path class="st0" d="M43,57l20.3-20.3L83.6,57l11.8-11.8L63.3,13.1L31.2,45.2L43,57z"/>
	<path class="st0" d="M11.1,65.3l11.8-11.8l11.8,11.8L22.9,77.1L11.1,65.3z"/>
	<path class="st0" d="M43,73.6l20.3,20.3l20.3-20.3l11.8,11.8l-32.1,32.1L31.2,85.4L43,73.6z"/>
	<path class="st0" d="M91.9,65.3l11.8-11.8l11.8,11.8l-11.8,11.8L91.9,65.3z"/>
	<path class="st0" d="M75.3,65.3l-12-12l-8.9,8.9l-1,1l-2.1,2.1l12,12L75.3,65.3L75.3,65.3z"/>
</g>
</svg>
