<?xml version="1.0" encoding="utf-8"?>
<!-- Generator: Adobe Illustrator 26.0.1, SVG Export Plug-In . SVG Version: 6.00 Build 0)  -->
<svg version="1.1" id="layer" xmlns="http://www.w3.org/2000/svg" xmlns:xlink="http://www.w3.org/1999/xlink" x="0px" y="0px"
	 viewBox="0 0 99.8 110.6" style="enable-background:new 0 0 99.8 110.6;" xml:space="preserve">
<style type="text/css">
	.st0{fill:#FFFFFF;}
	.st1{fill:#03316C;}
</style>
<path class="st0" d="M49.9,0L0,28.8v57.6l49.9,28.8l49.9-28.8V28.8L49.9,0z M49.9,0L0,28.8v57.6l49.9,28.8l49.9-28.8V28.8L49.9,0z"
	/>
<path class="st1" d="M69.6,92.7h-7.1L54,84.9v-4l8.8-8.4V59.2l11.5-7.5l13.1,9.9L69.6,92.7z M40.2,71.7l1.3-12.5L37.2,48h25.4
	l-4.2,11.2l1.2,12.5h-9.8H40.2z M46,84.9l-8.5,7.9h-7.2L12.4,61.6l13.2-9.8l11.6,7.4v13.3l8.8,8.4C46,80.9,46,84.9,46,84.9z
	 M30.2,24.9h39.3l4.7,20H25.6L30.2,24.9z M49.9,0L0,28.8v57.6l49.9,28.8l49.9-28.8V28.8L49.9,0z"/>
</svg>
