<?xml version="1.0" encoding="utf-8"?>
<!-- Generator: Adobe Illustrator 26.0.1, SVG Export Plug-In . SVG Version: 6.00 Build 0)  -->
<svg version="1.1" id="layer" xmlns="http://www.w3.org/2000/svg" xmlns:xlink="http://www.w3.org/1999/xlink" x="0px" y="0px"
	 viewBox="0 0 135 98.7" style="enable-background:new 0 0 135 98.7;" xml:space="preserve">
<style type="text/css">
	.st0{fill:url(#SVGID_1_);}
</style>
<linearGradient id="SVGID_1_" gradientUnits="userSpaceOnUse" x1="370.7099" y1="-60.6666" x2="365.3139" y2="-55.2706" gradientTransform="matrix(23.9866 0 0 16.946 -8765.915 1028.423)">
	<stop  offset="0" style="stop-color:#11C4D1"/>
	<stop  offset="1" style="stop-color:#0062AD"/>
</linearGradient>
<path class="st0" d="M133.8,4c4.4,59.5-33.8,87.6-68.1,90.6C33.8,97.4,3.8,77.8,1.2,47.7C-1,22.8,14.4,12.3,26.5,11.2
	c12.4-1.1,22.8,7.5,23.7,17.8c0.9,10-5.3,14.5-9.7,14.9c-3.4,0.3-7.7-1.8-8.1-6.2c-0.3-3.8,1.1-4.4,0.8-8.4c-0.6-7.2-7-8.1-10.4-7.8
	c-4.2,0.4-11.8,5.3-10.7,17.4c1.1,12.3,12.8,22,28.3,20.6C57,58,68.6,45.1,69.5,26.9c0-1,0.2-1.9,0.6-2.8l0,0
	c0.2-0.4,0.4-0.7,0.6-1.1c0.4-0.5,0.8-1.1,1.4-1.8l0,0c0.4-0.5,0.9-1,1.5-1.6c7.3-6.9,33.5-23,58.2-17.9C133,2,133.8,2.9,133.8,4"/>
</svg>
