<?xml version="1.0" encoding="utf-8"?>
<!-- Generator: Adobe Illustrator 27.2.0, SVG Export Plug-In . SVG Version: 6.00 Build 0)  -->
<svg version="1.1" id="Layer_1" xmlns="http://www.w3.org/2000/svg" xmlns:xlink="http://www.w3.org/1999/xlink" x="0px" y="0px"
	 viewBox="0 0 128 128" style="enable-background:new 0 0 128 128;" xml:space="preserve">
<style type="text/css">
	.st0{fill:#AB9FF2;}
</style>
<path class="st0" d="M23.7,109c13.6,0,23.9-11.9,30-21.2c-0.7,2.1-1.2,4.1-1.2,6.1c0,5.5,3.1,9.4,9.3,9.4c8.5,0,17.6-7.5,22.3-15.5
	c-0.3,1.2-0.5,2.2-0.5,3.2c0,3.8,2.1,6.2,6.5,6.2c13.8,0,27.7-24.5,27.7-45.9c0-16.7-8.4-31.4-29.6-31.4
	c-37.2,0-77.3,45.5-77.3,74.8C11.1,106.3,17.3,109,23.7,109z M75.5,49.5c0-4.1,2.3-7.1,5.7-7.1c3.3,0,5.6,2.9,5.6,7.1
	c0,4.1-2.3,7.1-5.6,7.1C77.8,56.7,75.5,53.7,75.5,49.5z M93.2,49.5c0-4.1,2.3-7.1,5.7-7.1c3.3,0,5.6,2.9,5.6,7.1
	c0,4.1-2.3,7.1-5.6,7.1C95.5,56.7,93.2,53.7,93.2,49.5z"/>
</svg>
