<?xml version="1.0" encoding="utf-8"?>
<!-- Generator: Adobe Illustrator 27.2.0, SVG Export Plug-In . SVG Version: 6.00 Build 0)  -->
<svg version="1.1" id="Layer_1" xmlns="http://www.w3.org/2000/svg" xmlns:xlink="http://www.w3.org/1999/xlink" x="0px" y="0px"
	 viewBox="0 0 128 128" style="enable-background:new 0 0 128 128;" xml:space="preserve">
<style type="text/css">
	.st0{fill:url(#SVGID_1_);}
	.st1{fill:url(#SVGID_00000025434729818563001430000000809297150951467657_);}
</style>
<linearGradient id="SVGID_1_" gradientUnits="userSpaceOnUse" x1="64" y1="118.5954" x2="64" y2="13.4046" gradientTransform="matrix(1 0 0 -1 0 130)">
	<stop  offset="0" style="stop-color:#534BB1"/>
	<stop  offset="1" style="stop-color:#551BF9"/>
</linearGradient>
<circle class="st0" cx="64" cy="64" r="52.6"/>
<linearGradient id="SVGID_00000180359363388494203250000004245185022843492749_" gradientUnits="userSpaceOnUse" x1="65.2326" y1="99.694" x2="65.2326" y2="29.8406" gradientTransform="matrix(1 0 0 -1 0 130)">
	<stop  offset="0" style="stop-color:#FFFFFF"/>
	<stop  offset="1" style="stop-color:#FFFFFF;stop-opacity:0.82"/>
</linearGradient>
<path style="fill:url(#SVGID_00000180359363388494203250000004245185022843492749_);" d="M102.3,64.8h-9.4c0-19-15.6-34.4-34.8-34.4
	c-19,0-34.4,15-34.8,33.7c-0.4,19.3,17.9,36.1,37.5,36.1h2.5c17.2,0,40.3-13.3,43.9-29.6C107.8,67.6,105.4,64.8,102.3,64.8z
	 M44.1,65.6c0,2.5-2.1,4.6-4.7,4.6s-4.7-2.1-4.7-4.6v-7.5c0-2.5,2.1-4.6,4.7-4.6s4.7,2.1,4.7,4.6V65.6z M60.3,65.6
	c0,2.5-2.1,4.6-4.7,4.6c-2.6,0-4.7-2.1-4.7-4.6v-7.5c0-2.5,2.1-4.6,4.7-4.6c2.6,0,4.7,2.1,4.7,4.6V65.6z"/>
</svg>
