<?xml version="1.0" encoding="utf-8"?>
<!-- Generator: Adobe Illustrator 27.2.0, SVG Export Plug-In . SVG Version: 6.00 Build 0)  -->
<svg version="1.1" id="Layer_1" xmlns="http://www.w3.org/2000/svg" xmlns:xlink="http://www.w3.org/1999/xlink" x="0px" y="0px"
	 viewBox="0 0 50 50" style="enable-background:new 0 0 50 50;" xml:space="preserve">
<style type="text/css">
	.st0{fill:url(#SVGID_1_);}
	.st1{fill:url(#SVGID_00000041259598882344835290000012858885229907352240_);}
</style>
<linearGradient id="SVGID_1_" gradientUnits="userSpaceOnUse" x1="10.7988" y1="39.9108" x2="32.3976" y2="20.3578" gradientTransform="matrix(1 0 0 -1 0 52)">
	<stop  offset="0" style="stop-color:#FFC10B"/>
	<stop  offset="1" style="stop-color:#FB3F2E"/>
</linearGradient>
<path class="st0" d="M25.1,42.4c0.4,0,0.7,0.3,0.7,0.7c0,0.4-0.3,0.7-0.7,0.7s-0.7-0.3-0.7-0.7C24.4,42.7,24.7,42.4,25.1,42.4z
	 M24.3,8.3c0.4,0,0.6,0.3,0.7,0.6l0.9,6.2c0.3,2.1,2.8,3,4.3,1.6l8.6-7.8c0.2-0.2,0.5-0.2,0.7,0c0.2,0.2,0.2,0.5,0,0.7L32,18.2
	c-1.4,1.6-0.4,4.1,1.7,4.3l6.6,0.6c0.3,0,0.6,0.3,0.5,0.6c0,0.3-0.2,0.5-0.5,0.5l-7,1.1c-2,0.3-2.9,2.7-1.6,4.2l2.4,2.9
	c0.2,0.2,0.2,0.6-0.1,0.8c-0.2,0.2-0.5,0.2-0.7,0l-3-2.3c-1.6-1.2-4-0.2-4.1,1.8l-0.7,7.9c0,0.3-0.3,0.6-0.6,0.5
	c-0.3,0-0.5-0.2-0.5-0.5l-1.1-7.6c-0.3-2.1-2.8-3-4.3-1.6L10,39.9c-0.2,0.2-0.5,0.2-0.7,0c-0.2-0.2-0.2-0.4,0-0.6l8-9.2
	c1.4-1.6,0.4-4.1-1.7-4.3l-6.6-0.6c-0.3,0-0.6-0.3-0.5-0.6c0-0.3,0.2-0.5,0.5-0.5l7-1.1c2-0.3,2.9-2.7,1.6-4.2l-1.7-2
	c-0.2-0.3-0.2-0.7,0.1-1c0.2-0.2,0.6-0.2,0.9,0l2,1.5c1.6,1.2,4,0.2,4.1-1.8l0.6-6.5C23.5,8.5,23.9,8.2,24.3,8.3z M6.7,23.8
	c0.4,0,0.7,0.3,0.7,0.7s-0.3,0.7-0.7,0.7c-0.4,0-0.7-0.3-0.7-0.7S6.3,23.8,6.7,23.8z M42.9,23.1c0.4,0,0.7,0.3,0.7,0.7
	c0,0.4-0.3,0.7-0.7,0.7c-0.4,0-0.7-0.3-0.7-0.7C42.2,23.4,42.5,23.1,42.9,23.1z M24.2,6c0.4,0,0.7,0.3,0.7,0.7
	c0,0.4-0.3,0.7-0.7,0.7c-0.4,0-0.7-0.3-0.7-0.7C23.5,6.3,23.8,6,24.2,6z"/>
<radialGradient id="SVGID_00000100353760110021114440000008807939531666967938_" cx="-201.4979" cy="285.2119" r="0.7597" gradientTransform="matrix(4.9922 12.0639 12.1811 -5.0407 -2445.2234 3890.1636)" gradientUnits="userSpaceOnUse">
	<stop  offset="0" style="stop-color:#FFC10B"/>
	<stop  offset="1" style="stop-color:#FB3F2E"/>
</radialGradient>
<path style="fill:url(#SVGID_00000100353760110021114440000008807939531666967938_);" d="M24.6,30.9c3.8,0,6.8-3,6.8-6.7
	c0-3.7-3.1-6.7-6.8-6.7s-6.8,3-6.8,6.7C17.8,27.9,20.9,30.9,24.6,30.9z"/>
</svg>
