<?xml version="1.0" encoding="utf-8"?>
<!-- Generator: Adobe Illustrator 27.2.0, SVG Export Plug-In . SVG Version: 6.00 Build 0)  -->
<svg version="1.1" id="Layer_1" xmlns="http://www.w3.org/2000/svg" xmlns:xlink="http://www.w3.org/1999/xlink" x="0px" y="0px"
	 viewBox="0 0 561 560" style="enable-background:new 0 0 561 560;" xml:space="preserve">
<style type="text/css">
	.st0{fill:#FF007A;}
	.st1{fill-rule:evenodd;clip-rule:evenodd;fill:#FF007A;}
</style>
<path class="st0" d="M224.5,123.2c-5.8-0.9-6.1-1-3.3-1.4c5.3-0.8,17.7,0.3,26.3,2.3c20,4.8,38.2,16.9,57.7,38.6l5.2,5.8l7.4-1.2
	c31.1-5,62.8-1,89.3,11.2c7.3,3.4,18.8,10.1,20.2,11.8c0.5,0.5,1.3,4.1,1.9,7.8c2,13,1,23-3,30.5c-2.2,4.1-2.3,5.4-0.8,8.8
	c1.2,2.8,4.4,4.8,7.6,4.8c6.6,0,13.7-10.6,16.9-25.5l1.3-5.9l2.6,2.9c14.2,16.1,25.3,37.9,27.2,53.5l0.5,4.1l-2.4-3.7
	c-4.1-6.4-8.2-10.7-13.5-14.2c-9.5-6.3-19.6-8.4-46.2-9.8c-24-1.3-37.6-3.3-51.1-7.7c-23-7.5-34.5-17.5-61.8-53.2
	c-12.1-15.9-19.6-24.7-27-31.8C262.4,135,245.8,126.5,224.5,123.2z"/>
<path class="st0" d="M432.6,158.7c0.6-10.6,2-17.7,5-24.1c1.1-2.5,2.2-4.6,2.4-4.6c0.2,0-0.3,1.9-1.1,4.2c-2.1,6.2-2.5,14.7-1,24.6
	c1.8,12.6,2.9,14.4,16.2,28c6.2,6.4,13.5,14.4,16.1,17.8l4.8,6.3l-4.8-4.5c-5.8-5.5-19.3-16.2-22.2-17.7c-2-1-2.3-1-3.5,0.2
	c-1.1,1.1-1.4,2.8-1.5,10.8c-0.2,12.5-1.9,20.5-6,28.5c-2.2,4.3-2.6,3.4-0.6-1.5c1.5-3.6,1.6-5.2,1.6-17.3
	c0-24.2-2.9-30.1-19.8-40.1c-4.3-2.5-11.3-6.2-15.7-8.1c-4.3-1.9-7.8-3.6-7.7-3.7c0.5-0.5,16.9,4.3,23.6,6.9
	c9.9,3.8,11.5,4.3,12.7,3.8C431.8,167.9,432.2,165.6,432.6,158.7z"/>
<path class="st0" d="M235.9,200.2c-11.9-16.3-19.2-41.4-17.6-60.1l0.5-5.8l2.7,0.5c5.1,0.9,13.8,4.2,17.9,6.7
	c11.2,6.8,16.1,15.8,21,38.9c1.4,6.8,3.4,14.4,4.2,17c1.4,4.2,6.7,13.9,11.1,20.2c3.1,4.6,1,6.7-5.8,6.1
	C259.3,222.7,245.1,212.8,235.9,200.2z"/>
<path class="st0" d="M418.2,321.7c-55.4-22.3-75-41.7-75-74.4c0-4.8,0.2-8.7,0.4-8.7c0.2,0,2.3,1.6,4.8,3.5
	c11.2,9,23.8,12.9,58.7,17.9c20.5,3,32,5.4,42.7,8.9c33.8,11.2,54.8,34,59.8,65c1.5,9,0.6,25.9-1.8,34.8c-1.9,7-7.5,19.7-9,20.2
	c-0.4,0.1-0.8-1.5-0.9-3.6c-0.6-11.6-6.5-23-16.3-31.5C470.2,344.3,455.1,336.6,418.2,321.7z"/>
<path class="st0" d="M379.3,331c-0.7-4.1-1.9-9.4-2.7-11.7l-1.4-4.2l2.6,2.9c3.6,4.1,6.5,9.3,8.9,16.3c1.9,5.3,2.1,6.9,2.1,15.5
	c0,8.5-0.2,10.2-2,15c-2.7,7.5-6.1,12.9-11.7,18.6c-10.1,10.3-23.1,16-41.9,18.4c-3.3,0.4-12.8,1.1-21.1,1.5
	c-21.1,1.1-35,3.4-47.4,7.7c-1.8,0.6-3.4,1-3.6,0.9c-0.5-0.5,8-5.6,15-8.9c9.9-4.8,19.7-7.4,41.8-11c10.9-1.8,22.1-4,25-4.9
	C369.9,378.7,383.7,357.4,379.3,331z"/>
<path class="st0" d="M404.7,376.1c-7.4-15.8-9.1-31.1-5-45.4c0.4-1.5,1.1-2.8,1.5-2.8c0.4,0,2.2,0.9,3.9,2.1
	c3.4,2.3,10.2,6.1,28.3,16c22.6,12.3,35.5,21.9,44.3,32.8c7.7,9.6,12.4,20.4,14.7,33.7c1.3,7.5,0.5,25.6-1.4,33.2
	c-6.1,23.9-20.2,42.6-40.4,53.6c-3,1.6-5.6,2.9-5.9,2.9c-0.3,0,0.8-2.7,2.4-6.1c6.8-14.2,7.6-28,2.4-43.3
	c-3.1-9.4-9.5-20.9-22.5-40.3C412.1,390.1,408.4,384.1,404.7,376.1z"/>
<path class="st0" d="M196.5,461.5c20.6-17.4,46.2-29.7,69.5-33.5c10-1.6,26.8-1,36.1,1.4c14.9,3.8,28.3,12.4,35.2,22.5
	c6.8,10,9.7,18.6,12.7,37.9c1.2,7.6,2.5,15.3,2.9,17c2.3,10,6.7,18,12.2,22c8.7,6.4,23.7,6.8,38.5,1c2.5-1,4.7-1.7,4.8-1.5
	c0.5,0.5-6.9,5.5-12.1,8.1c-7.1,3.5-12.7,4.9-20.1,4.9c-13.5,0-24.7-6.9-34.1-20.9c-1.8-2.8-6-11-9.2-18.4
	c-9.9-22.5-14.8-29.4-26.2-36.9c-10-6.5-22.9-7.7-32.6-3c-12.7,6.2-16.3,22.5-7.2,32.8c3.6,4.1,10.4,7.6,15.9,8.3
	c10.3,1.3,19.2-6.6,19.2-17c0-6.8-2.6-10.6-9.2-13.6c-9-4-18.6,0.7-18.5,9.1c0,3.6,1.6,5.8,5.2,7.5c2.3,1,2.4,1.1,0.5,0.7
	c-8.2-1.7-10.1-11.6-3.5-18.2c7.9-7.9,24.3-4.4,30,6.4c2.4,4.5,2.6,13.5,0.6,19c-4.6,12.2-18.1,18.6-31.7,15.1
	c-9.3-2.4-13.1-4.9-24.3-16.5c-19.5-20.1-27-24-55.1-28.3l-5.4-0.8L196.5,461.5z"/>
<path class="st1" d="M49.6,12C114.7,91,215,213.9,220,220.8c4.1,5.7,2.6,10.8-4.5,14.8c-3.9,2.2-12,4.5-16,4.5
	c-4.6,0-9.7-2.2-13.4-5.7c-2.6-2.5-13.3-18.4-38-56.7c-18.9-29.2-34.6-53.5-35.1-53.9c-1-0.9-1-0.9,33.1,60.1
	c21.4,38.3,28.7,51.9,28.7,53.7c0,3.7-1,5.6-5.6,10.7c-7.6,8.5-11,18-13.4,37.6c-2.7,22-10.5,37.6-31.8,64.3
	c-12.5,15.6-14.6,18.5-17.7,24.7c-4,7.9-5.1,12.4-5.5,22.4c-0.5,10.6,0.4,17.4,3.7,27.5c2.8,8.8,5.8,14.7,13.3,26.4
	c6.5,10.1,10.3,17.6,10.3,20.5c0,2.3,0.4,2.3,10.5,0.1c24.1-5.5,43.8-15,54.8-26.8c6.8-7.3,8.4-11.3,8.5-21.3c0-6.5-0.2-7.9-2-11.6
	c-2.9-6.1-8.1-11.2-19.6-19c-15.1-10.3-21.5-18.6-23.3-30c-1.5-9.4,0.2-16,8.6-33.5c8.6-18.1,10.8-25.8,12.2-44.1
	c0.9-11.8,2.2-16.4,5.6-20.2c3.5-3.9,6.7-5.2,15.5-6.4c14.3-1.9,23.3-5.6,30.8-12.5c6.5-6,9.2-11.7,9.6-20.4l0.3-6.6l-3.6-4.2
	C222.8,199.9,40.8,0,40,0C39.9,0,44.2,5.4,49.6,12z M135.4,409.2c3-5.2,1.4-12-3.6-15.3c-4.7-3.1-11.9-1.6-11.9,2.4
	c0,1.2,0.7,2.1,2.2,2.9c2.6,1.3,2.8,2.8,0.7,5.9c-2.1,3.1-1.9,5.8,0.5,7.7C127.2,415.8,132.6,414.2,135.4,409.2z"/>
<path class="st1" d="M248.6,262.2c-6.7,2.1-13.2,9.1-15.2,16.6c-1.2,4.5-0.5,12.5,1.3,15c3,4,5.8,5,13.6,5
	c15.2-0.1,28.5-6.6,30-14.8c1.3-6.7-4.6-16-12.6-20.1C261.6,261.8,252.8,260.9,248.6,262.2z M266.4,276.2c2.3-3.3,1.3-6.9-2.7-9.4
	c-7.6-4.6-19.1-0.8-19.1,6.4c0,3.6,6,7.5,11.5,7.5C259.7,280.7,264.7,278.5,266.4,276.2z"/>
</svg>
